  0
SECTION
  2
HEADER
  9
$ACADVER
  1
AC1014
  9
$HANDSEED
  5
FFFF
  9
$MEASUREMENT
 70
     1
  0
ENDSEC
  0
SECTION
  2
TABLES
  0
TABLE
  2
VPORT
  5
8
330
0
100
AcDbSymbolTable
 70
     4
  0
VPORT
  5
2E
330
8
100
AcDbSymbolTableRecord
100
AcDbViewportTableRecord
  2
*ACTIVE
 70
     0
 10
0.0
 20
0.0
 11
1.0
 21
1.0
 12
210.0
 22
148.5
 13
0.0
 23
0.0
 14
10.0
 24
10.0
 15
10.0
 25
10.0
 16
0.0
 26
0.0
 36
1.0
 17
0.0
 27
0.0
 37
0.0
 40
341.0
 41
1.24
 42
50.0
 43
0.0
 44
0.0
 50
0.0
 51
0.0
 71
     0
 72
   100
 73
     1
 74
     3
 75
     0
 76
     0
 77
     0
 78
     0
  0
ENDTAB
  0
TABLE
  2
LTYPE
  5
5
330
0
100
AcDbSymbolTable
 70
     1
  0
LTYPE
  5
14
330
5
100
AcDbSymbolTableRecord
100
AcDbLinetypeTableRecord
  2
BYBLOCK
 70
     0
  3

 72
    65
 73
     0
 40
0.0
  0
LTYPE
  5
15
330
5
100
AcDbSymbolTableRecord
100
AcDbLinetypeTableRecord
  2
BYLAYER
 70
     0
  3

 72
    65
 73
     0
 40
0.0
  0
LTYPE
  5
16
330
5
100
AcDbSymbolTableRecord
100
AcDbLinetypeTableRecord
  2
CONTINUOUS
 70
     0
  3
Solid line
 72
    65
 73
     0
 40
0.0
  0
ENDTAB
  0
TABLE
  2
LAYER
  5
2
100
AcDbSymbolTable
 70
2
  0
LAYER
  5
50
100
AcDbSymbolTableRecord
100
AcDbLayerTableRecord
  2
0
 70
0
  6
CONTINUOUS
  0
LAYER
  5
51
100
AcDbSymbolTableRecord
100
AcDbLayerTableRecord
  2
Layer_1
 70
0
  6
CONTINUOUS
  0
ENDTAB
  0
TABLE
  2
STYLE
  5
3
330
0
100
AcDbSymbolTable
 70
     1
  0
STYLE
  5
11
330
3
100
AcDbSymbolTableRecord
100
AcDbTextStyleTableRecord
  2
STANDARD
 70
     0
 40
0.0
 41
1.0
 50
0.0
 71
     0
 42
2.5
  3
txt
  4

  0
ENDTAB
  0
TABLE
  2
VIEW
  5
6
330
0
100
AcDbSymbolTable
 70
     0
  0
ENDTAB
  0
TABLE
  2
UCS
  5
7
330
0
100
AcDbSymbolTable
 70
     0
  0
ENDTAB
  0
TABLE
  2
APPID
  5
9
330
0
100
AcDbSymbolTable
 70
     2
  0
APPID
  5
12
330
9
100
AcDbSymbolTableRecord
100
AcDbRegAppTableRecord
  2
ACAD
 70
     0
  0
ENDTAB
  0
TABLE
  2
DIMSTYLE
  5
A
330
0
100
AcDbSymbolTable
 70
     1
  0
DIMSTYLE
105
27
330
A
100
AcDbSymbolTableRecord
100
AcDbDimStyleTableRecord
  2
ISO-25
 70
     0
  3

  4

  5

  6

  7

 40
1.0
 41
2.5
 42
0.625
 43
3.75
 44
1.25
 45
0.0
 46
0.0
 47
0.0
 48
0.0
140
2.5
141
2.5
142
0.0
143
0.03937007874016
144
1.0
145
0.0
146
1.0
147
0.625
 71
     0
 72
     0
 73
     0
 74
     0
 75
     0
 76
     0
 77
     1
 78
     8
170
     0
171
     3
172
     1
173
     0
174
     0
175
     0
176
     0
177
     0
178
     0
270
     2
271
     2
272
     2
273
     2
274
     3
340
11
275
     0
280
     0
281
     0
282
     0
283
     0
284
     8
285
     0
286
     0
287
     3
288
     0
  0
ENDTAB
  0
TABLE
  2
BLOCK_RECORD
  5
1
330
0
100
AcDbSymbolTable
 70
     1
  0
BLOCK_RECORD
  5
1F
330
1
100
AcDbSymbolTableRecord
100
AcDbBlockTableRecord
  2
*MODEL_SPACE
  0
BLOCK_RECORD
  5
1B
330
1
100
AcDbSymbolTableRecord
100
AcDbBlockTableRecord
  2
*PAPER_SPACE
  0
ENDTAB
  0
ENDSEC
  0
SECTION
  2
BLOCKS
  0
BLOCK
  5
20
330
1F
100
AcDbEntity
  8
0
100
AcDbBlockBegin
  2
*MODEL_SPACE
 70
     0
 10
0.0
 20
0.0
 30
0.0
  3
*MODEL_SPACE
  1

  0
ENDBLK
  5
21
330
1F
100
AcDbEntity
  8
0
100
AcDbBlockEnd
  0
BLOCK
  5
1C
330
1B
100
AcDbEntity
 67
     1
  8
0
100
AcDbBlockBegin
  2
*PAPER_SPACE
  1

  0
ENDBLK
  5
1D
330
1B
100
AcDbEntity
 67
     1
  8
0
100
AcDbBlockEnd
  0
ENDSEC
  0
SECTION
  2
ENTITIES
  0
LWPOLYLINE
  5
100
100
AcDbEntity
  8
Layer_1
 62
1
100
AcDbPolyline
 90
2
 70
0
 10
27.750523
 20
56.772062
 30
0.0
 10
27.750523
 20
56.503348
 30
0.0
  0
SPLINE
  5
101
100
AcDbEntity
  8
Layer_1
 62
1
100
AcDbSpline
 70
0
 71
3
 72
13
 73
9
 74
7
 40
0.000000
 40
0.000000
 40
0.000000
 40
0.000000
 40
0.133896
 40
0.272706
 40
0.418991
 40
0.606521
 40
0.779700
 40
0.946308
 40
0.946308
 40
0.946308
 40
0.946308
 10
27.750523
 20
56.516473
 30
0.0
 10
27.791012
 20
56.496366
 30
0.0
 10
27.873475
 20
56.455415
 30
0.0
 10
27.958017
 20
56.338267
 30
0.0
 10
28.006759
 20
56.186091
 30
0.0
 10
27.995293
 20
56.013373
 30
0.0
 10
27.908522
 20
55.847967
 30
0.0
 10
27.802751
 20
55.800139
 30
0.0
 10
27.750888
 20
55.776688
 30
0.0
 11
27.750523
 21
56.516473
 31
0.0
 11
27.865375
 21
56.447644
 31
0.0
 11
27.949842
 21
56.337493
 31
0.0
 11
27.994445
 21
56.198173
 31
0.0
 11
27.981130
 21
56.011116
 31
0.0
 11
27.894489
 21
55.861168
 31
0.0
 11
27.750888
 21
55.776688
 31
0.0
  0
LWPOLYLINE
  5
102
100
AcDbEntity
  8
Layer_1
 62
1
100
AcDbPolyline
 90
2
 70
0
 10
27.750523
 20
55.777417
 30
0.0
 10
27.750523
 20
55.535318
 30
0.0
  0
LWPOLYLINE
  5
103
100
AcDbEntity
  8
Layer_1
 62
1
100
AcDbPolyline
 90
2
 70
0
 10
27.750523
 20
55.777417
 30
0.0
 10
27.750523
 20
55.535318
 30
0.0
  0
LWPOLYLINE
  5
104
100
AcDbEntity
  8
Layer_1
 62
1
100
AcDbPolyline
 90
2
 70
0
 10
27.764014
 20
55.535318
 30
0.0
 10
29.766795
 20
55.535318
 30
0.0
  0
LWPOLYLINE
  5
105
100
AcDbEntity
  8
Layer_1
 62
1
100
AcDbPolyline
 90
5
 70
0
 10
29.753304
 20
55.535318
 30
0.0
 10
29.753304
 20
55.938573
 30
0.0
 10
29.525061
 20
55.938573
 30
0.0
 10
29.525061
 20
55.804398
 30
0.0
 10
28.127162
 20
55.804398
 30
0.0
  0
LWPOLYLINE
  5
106
100
AcDbEntity
  8
Layer_1
 62
1
100
AcDbPolyline
 90
2
 70
0
 10
33.853298
 20
56.772062
 30
0.0
 10
33.853298
 20
56.503348
 30
0.0
  0
SPLINE
  5
107
100
AcDbEntity
  8
Layer_1
 62
1
100
AcDbSpline
 70
0
 71
3
 72
13
 73
9
 74
7
 40
0.000000
 40
0.000000
 40
0.000000
 40
0.000000
 40
0.152899
 40
0.306368
 40
0.461985
 40
0.720008
 40
0.968838
 40
1.217192
 40
1.217192
 40
1.217192
 40
1.217192
 10
27.750523
 20
56.772062
 30
0.0
 10
27.799344
 20
56.756544
 30
0.0
 10
27.897168
 20
56.725451
 30
0.0
 10
28.024577
 20
56.635021
 30
0.0
 10
28.152186
 20
56.493575
 30
0.0
 10
28.241701
 20
56.286049
 30
0.0
 10
28.250119
 20
56.023831
 30
0.0
 10
28.169580
 20
55.876037
 30
0.0
 10
28.129350
 20
55.802210
 30
0.0
 11
27.750523
 21
56.772062
 31
0.0
 11
27.893665
 21
56.718316
 31
0.0
 11
28.020116
 21
56.631351
 31
0.0
 11
28.123880
 21
56.515379
 31
0.0
 11
28.226659
 21
56.278709
 31
0.0
 11
28.228563
 21
56.029886
 31
0.0
 11
28.129350
 21
55.802210
 31
0.0
  0
SPLINE
  5
108
100
AcDbEntity
  8
Layer_1
 62
1
100
AcDbSpline
 70
0
 71
3
 72
13
 73
9
 74
7
 40
0.000000
 40
0.000000
 40
0.000000
 40
0.000000
 40
0.133896
 40
0.272706
 40
0.418992
 40
0.606522
 40
0.779701
 40
0.946309
 40
0.946309
 40
0.946309
 40
0.946309
 10
33.853298
 20
56.516473
 30
0.0
 10
33.812810
 20
56.496366
 30
0.0
 10
33.730347
 20
56.455415
 30
0.0
 10
33.645804
 20
56.338267
 30
0.0
 10
33.597061
 20
56.186091
 30
0.0
 10
33.608529
 20
56.013373
 30
0.0
 10
33.695300
 20
55.847967
 30
0.0
 10
33.801071
 20
55.800139
 30
0.0
 10
33.852933
 20
55.776688
 30
0.0
 11
33.853298
 21
56.516473
 31
0.0
 11
33.738447
 21
56.447644
 31
0.0
 11
33.653980
 21
56.337493
 31
0.0
 11
33.609376
 21
56.198173
 31
0.0
 11
33.622691
 21
56.011116
 31
0.0
 11
33.709332
 21
55.861168
 31
0.0
 11
33.852933
 21
55.776688
 31
0.0
  0
LWPOLYLINE
  5
109
100
AcDbEntity
  8
Layer_1
 62
1
100
AcDbPolyline
 90
2
 70
0
 10
33.853298
 20
55.777417
 30
0.0
 10
33.853298
 20
55.535318
 30
0.0
  0
LWPOLYLINE
  5
10a
100
AcDbEntity
  8
Layer_1
 62
1
100
AcDbPolyline
 90
2
 70
0
 10
33.853298
 20
55.777417
 30
0.0
 10
33.853298
 20
55.535318
 30
0.0
  0
LWPOLYLINE
  5
10b
100
AcDbEntity
  8
Layer_1
 62
1
100
AcDbPolyline
 90
2
 70
0
 10
33.839807
 20
55.535318
 30
0.0
 10
31.837027
 20
55.535318
 30
0.0
  0
LWPOLYLINE
  5
10c
100
AcDbEntity
  8
Layer_1
 62
1
100
AcDbPolyline
 90
5
 70
0
 10
31.850517
 20
55.535318
 30
0.0
 10
31.850517
 20
55.938573
 30
0.0
 10
32.078761
 20
55.938573
 30
0.0
 10
32.078761
 20
55.804398
 30
0.0
 10
33.476660
 20
55.804398
 30
0.0
  0
LWPOLYLINE
  5
10d
100
AcDbEntity
  8
Layer_1
 62
1
100
AcDbPolyline
 90
2
 70
0
 10
33.853298
 20
57.981824
 30
0.0
 10
33.853298
 20
58.250539
 30
0.0
  0
SPLINE
  5
10e
100
AcDbEntity
  8
Layer_1
 62
1
100
AcDbSpline
 70
0
 71
3
 72
13
 73
9
 74
7
 40
0.000000
 40
0.000000
 40
0.000000
 40
0.000000
 40
0.152899
 40
0.306368
 40
0.461985
 40
0.720013
 40
0.968844
 40
1.217096
 40
1.217096
 40
1.217096
 40
1.217096
 10
33.853298
 20
56.772062
 30
0.0
 10
33.804477
 20
56.756544
 30
0.0
 10
33.706654
 20
56.725451
 30
0.0
 10
33.579245
 20
56.635021
 30
0.0
 10
33.451634
 20
56.493574
 30
0.0
 10
33.362124
 20
56.286045
 30
0.0
 10
33.353618
 20
56.023891
 30
0.0
 10
33.433976
 20
55.876046
 30
0.0
 10
33.474108
 20
55.802210
 30
0.0
 11
33.853298
 21
56.772062
 31
0.0
 11
33.710156
 21
56.718316
 31
0.0
 11
33.583706
 21
56.631351
 31
0.0
 11
33.479942
 21
56.515379
 31
0.0
 11
33.377150
 21
56.278709
 31
0.0
 11
33.375151
 21
56.029886
 31
0.0
 11
33.474108
 21
55.802210
 31
0.0
  0
SPLINE
  5
10f
100
AcDbEntity
  8
Layer_1
 62
1
100
AcDbSpline
 70
0
 71
3
 72
13
 73
9
 74
7
 40
0.000000
 40
0.000000
 40
0.000000
 40
0.000000
 40
0.133938
 40
0.272812
 40
0.418943
 40
0.607905
 40
0.781930
 40
0.949236
 40
0.949236
 40
0.949236
 40
0.949236
 10
33.853298
 20
58.237049
 30
0.0
 10
33.812807
 20
58.257184
 30
0.0
 10
33.730333
 20
58.298196
 30
0.0
 10
33.645869
 20
58.415363
 30
0.0
 10
33.596872
 20
58.567938
 30
0.0
 10
33.608766
 20
58.741408
 30
0.0
 10
33.696672
 20
58.907608
 30
0.0
 10
33.803492
 20
58.954553
 30
0.0
 10
33.855850
 20
58.977563
 30
0.0
 11
33.853298
 21
58.237049
 31
0.0
 11
33.738447
 21
58.305959
 31
0.0
 11
33.653980
 21
58.416191
 31
0.0
 11
33.609376
 21
58.555349
 31
0.0
 11
33.623123
 21
58.743810
 31
0.0
 11
33.710845
 21
58.894109
 31
0.0
 11
33.855850
 21
58.977563
 31
0.0
  0
LWPOLYLINE
  5
110
100
AcDbEntity
  8
Layer_1
 62
1
100
AcDbPolyline
 90
2
 70
0
 10
33.853298
 20
58.989960
 30
0.0
 10
33.853298
 20
59.218204
 30
0.0
  0
LWPOLYLINE
  5
111
100
AcDbEntity
  8
Layer_1
 62
1
100
AcDbPolyline
 90
2
 70
0
 10
33.853298
 20
58.976469
 30
0.0
 10
33.853298
 20
59.218204
 30
0.0
  0
LWPOLYLINE
  5
112
100
AcDbEntity
  8
Layer_1
 62
1
100
AcDbPolyline
 90
4
 70
0
 10
33.839807
 20
59.218204
 30
0.0
 10
32.683642
 20
59.218204
 30
0.0
 10
32.683642
 20
57.538099
 30
0.0
 10
33.140858
 20
57.538099
 30
0.0
  0
LWPOLYLINE
  5
113
100
AcDbEntity
  8
Layer_1
 62
1
100
AcDbPolyline
 90
3
 70
0
 10
32.925741
 20
57.766707
 30
0.0
 10
32.925741
 20
58.962979
 30
0.0
 10
33.476660
 20
58.962979
 30
0.0
  0
LWPOLYLINE
  5
114
100
AcDbEntity
  8
Layer_1
 62
1
100
AcDbPolyline
 90
2
 70
0
 10
32.925741
 20
57.766707
 30
0.0
 10
33.140858
 20
57.766707
 30
0.0
  0
LWPOLYLINE
  5
115
100
AcDbEntity
  8
Layer_1
 62
1
100
AcDbPolyline
 90
2
 70
0
 10
33.140858
 20
57.538099
 30
0.0
 10
33.140858
 20
57.766707
 30
0.0
  0
LWPOLYLINE
  5
116
100
AcDbEntity
  8
Layer_1
 62
1
100
AcDbPolyline
 90
2
 70
0
 10
27.750888
 20
57.981824
 30
0.0
 10
27.750888
 20
58.250539
 30
0.0
  0
SPLINE
  5
117
100
AcDbEntity
  8
Layer_1
 62
1
100
AcDbSpline
 70
0
 71
3
 72
13
 73
9
 74
7
 40
0.000000
 40
0.000000
 40
0.000000
 40
0.000000
 40
0.152899
 40
0.306368
 40
0.461984
 40
0.723518
 40
0.975474
 40
1.226971
 40
1.226971
 40
1.226971
 40
1.226971
 10
33.853298
 20
57.981824
 30
0.0
 10
33.804477
 20
57.997342
 30
0.0
 10
33.706654
 20
58.028435
 30
0.0
 10
33.579247
 20
58.118867
 30
0.0
 10
33.450837
 20
58.261178
 30
0.0
 10
33.361000
 20
58.471205
 30
0.0
 10
33.354699
 20
58.737190
 30
0.0
 10
33.438717
 20
58.885573
 30
0.0
 10
33.480689
 20
58.959697
 30
0.0
 11
33.853298
 21
57.981824
 31
0.0
 11
33.710156
 21
58.035570
 31
0.0
 11
33.583706
 21
58.122535
 31
0.0
 11
33.479942
 21
58.238507
 31
0.0
 11
33.376502
 21
58.478715
 31
0.0
 11
33.376777
 21
58.730671
 31
0.0
 11
33.480689
 21
58.959697
 31
0.0
  0
LWPOLYLINE
  5
118
100
AcDbEntity
  8
Layer_1
 62
1
100
AcDbPolyline
 90
2
 70
0
 10
27.750888
 20
58.989596
 30
0.0
 10
27.750888
 20
59.218204
 30
0.0
  0
LWPOLYLINE
  5
119
100
AcDbEntity
  8
Layer_1
 62
1
100
AcDbPolyline
 90
2
 70
0
 10
27.750888
 20
58.976469
 30
0.0
 10
27.750888
 20
59.218204
 30
0.0
  0
LWPOLYLINE
  5
11a
100
AcDbEntity
  8
Layer_1
 62
1
100
AcDbPolyline
 90
4
 70
0
 10
27.764379
 20
59.218204
 30
0.0
 10
28.920179
 20
59.218204
 30
0.0
 10
28.920179
 20
57.538099
 30
0.0
 10
28.476454
 20
57.538099
 30
0.0
  0
LWPOLYLINE
  5
11b
100
AcDbEntity
  8
Layer_1
 62
1
100
AcDbPolyline
 90
3
 70
0
 10
28.678081
 20
57.766707
 30
0.0
 10
28.678081
 20
58.962614
 30
0.0
 10
28.248210
 20
58.962614
 30
0.0
  0
LWPOLYLINE
  5
11c
100
AcDbEntity
  8
Layer_1
 62
1
100
AcDbPolyline
 90
2
 70
0
 10
28.678081
 20
57.766707
 30
0.0
 10
28.476454
 20
57.766707
 30
0.0
  0
LWPOLYLINE
  5
11d
100
AcDbEntity
  8
Layer_1
 62
1
100
AcDbPolyline
 90
2
 70
0
 10
28.476454
 20
57.538099
 30
0.0
 10
28.476454
 20
57.766707
 30
0.0
  0
LWPOLYLINE
  5
11e
100
AcDbEntity
  8
Layer_1
 62
1
100
AcDbPolyline
 90
2
 70
0
 10
28.234720
 20
57.981460
 30
0.0
 10
27.750888
 20
57.981460
 30
0.0
  0
LWPOLYLINE
  5
11f
100
AcDbEntity
  8
Layer_1
 62
1
100
AcDbPolyline
 90
2
 70
0
 10
28.248210
 20
57.981460
 30
0.0
 10
28.248210
 20
58.962614
 30
0.0
  0
LWPOLYLINE
  5
120
100
AcDbEntity
  8
Layer_1
 62
1
100
AcDbPolyline
 90
2
 70
0
 10
27.750888
 20
55.306711
 30
0.0
 10
33.853298
 20
55.306711
 30
0.0
  0
LWPOLYLINE
  5
121
100
AcDbEntity
  8
Layer_1
 62
1
100
AcDbPolyline
 90
2
 70
0
 10
27.750888
 20
59.500408
 30
0.0
 10
33.853298
 20
59.500408
 30
0.0
  0
LWPOLYLINE
  5
122
100
AcDbEntity
  8
Layer_1
 62
1
100
AcDbPolyline
 90
2
 70
0
 10
27.750888
 20
57.981460
 30
0.0
 10
27.750888
 20
56.772062
 30
0.0
  0
LWPOLYLINE
  5
123
100
AcDbEntity
  8
Layer_1
 62
1
100
AcDbPolyline
 90
2
 70
0
 10
33.853298
 20
57.981460
 30
0.0
 10
33.853298
 20
56.772062
 30
0.0
  0
LWPOLYLINE
  5
124
100
AcDbEntity
  8
Layer_1
 62
1
100
AcDbPolyline
 90
4
 70
1
 10
29.673091
 20
59.137625
 30
0.0
 10
31.971567
 20
59.137625
 30
0.0
 10
31.971567
 20
56.664138
 30
0.0
 10
29.673091
 20
56.664138
 30
0.0
  0
LWPOLYLINE
  5
125
100
AcDbEntity
  8
Layer_1
 62
7
100
AcDbPolyline
 90
4
 70
1
 10
30.102961
 20
57.201932
 30
0.0
 10
31.433773
 20
57.201932
 30
0.0
 10
31.433773
 20
58.559725
 30
0.0
 10
30.102961
 20
58.559725
 30
0.0
  0
LWPOLYLINE
  5
126
100
AcDbEntity
  8
Layer_1
 62
1
100
AcDbPolyline
 90
4
 70
1
 10
31.433773
 20
57.201932
 30
0.0
 10
30.102961
 20
57.201932
 30
0.0
 10
30.102961
 20
58.559725
 30
0.0
 10
31.433773
 20
58.559725
 30
0.0
  0
LWPOLYLINE
  5
127
100
AcDbEntity
  8
Layer_1
 62
1
100
AcDbPolyline
 90
1
 70
1
 10
30.102961
 20
57.201932
 30
0.0
  0
LWPOLYLINE
  5
128
100
AcDbEntity
  8
Layer_1
 62
1
100
AcDbPolyline
 90
1
 70
1
 10
30.102961
 20
58.559725
 30
0.0
  0
LWPOLYLINE
  5
129
100
AcDbEntity
  8
Layer_1
 62
1
100
AcDbPolyline
 90
2
 70
0
 10
33.853298
 20
55.535318
 30
0.0
 10
33.853298
 20
55.306710
 30
0.0
  0
LWPOLYLINE
  5
12a
100
AcDbEntity
  8
Layer_1
 62
1
100
AcDbPolyline
 90
2
 70
0
 10
33.853298
 20
59.500408
 30
0.0
 10
33.853298
 20
59.218203
 30
0.0
  0
LWPOLYLINE
  5
12b
100
AcDbEntity
  8
Layer_1
 62
1
100
AcDbPolyline
 90
2
 70
0
 10
27.750523
 20
59.500408
 30
0.0
 10
27.750523
 20
59.218203
 30
0.0
  0
LWPOLYLINE
  5
12c
100
AcDbEntity
  8
Layer_1
 62
1
100
AcDbPolyline
 90
2
 70
0
 10
27.750523
 20
55.535318
 30
0.0
 10
27.750523
 20
55.306710
 30
0.0
  0
LWPOLYLINE
  5
12d
100
AcDbEntity
  8
Layer_1
 62
1
100
AcDbPolyline
 90
2
 70
0
 10
33.234927
 20
59.460301
 30
0.0
 10
33.234927
 20
55.306710
 30
0.0
  0
SPLINE
  5
12e
100
AcDbEntity
  8
Layer_1
 62
1
100
AcDbSpline
 70
0
 71
3
 72
13
 73
9
 74
7
 40
0.000000
 40
0.000000
 40
0.000000
 40
0.000000
 40
0.133730
 40
0.272603
 40
0.418809
 40
0.607547
 40
0.781620
 40
0.949058
 40
0.949058
 40
0.949058
 40
0.949058
 10
27.750888
 20
58.237049
 30
0.0
 10
27.791295
 20
58.257198
 30
0.0
 10
27.873662
 20
58.298271
 30
0.0
 10
27.958000
 20
58.415402
 30
0.0
 10
28.007472
 20
58.567807
 30
0.0
 10
27.995049
 20
58.741286
 30
0.0
 10
27.907123
 20
58.907328
 30
0.0
 10
27.800331
 20
58.954457
 30
0.0
 10
27.747972
 20
58.977563
 30
0.0
 11
27.750888
 21
58.237049
 31
0.0
 11
27.865496
 21
58.305959
 31
0.0
 11
27.949963
 21
58.416191
 31
0.0
 11
27.994810
 21
58.555349
 31
0.0
 11
27.980806
 21
58.743567
 31
0.0
 11
27.892990
 21
58.893866
 31
0.0
 11
27.747972
 21
58.977563
 31
0.0
  0
LWPOLYLINE
  5
12f
100
AcDbEntity
  8
Layer_1
 62
1
100
AcDbPolyline
 90
2
 70
0
 10
28.449838
 20
59.460301
 30
0.0
 10
28.449838
 20
55.306710
 30
0.0
  0
ENDSEC
  0
SECTION
  2
OBJECTS
  0
DICTIONARY
  5
C
330
0
100
AcDbDictionary
  3
ACAD_GROUP
350
D
  3
ACAD_MLINESTYLE
350
17
  0
DICTIONARY
  5
D
330
C
100
AcDbDictionary
  0
DICTIONARY
  5
1A
330
C
100
AcDbDictionary
  0
DICTIONARY
  5
17
330
C
100
AcDbDictionary
  3
STANDARD
350
18
  0
DICTIONARY
  5
19
330
C
100
AcDbDictionary
  0
ENDSEC
  0
EOF
