  0
SECTION
  2
HEADER
  9
$ACADVER
  1
AC1014
  9
$HANDSEED
  5
FFFF
  9
$MEASUREMENT
 70
     1
  0
ENDSEC
  0
SECTION
  2
TABLES
  0
TABLE
  2
VPORT
  5
8
330
0
100
AcDbSymbolTable
 70
     4
  0
VPORT
  5
2E
330
8
100
AcDbSymbolTableRecord
100
AcDbViewportTableRecord
  2
*ACTIVE
 70
     0
 10
0.0
 20
0.0
 11
1.0
 21
1.0
 12
210.0
 22
148.5
 13
0.0
 23
0.0
 14
10.0
 24
10.0
 15
10.0
 25
10.0
 16
0.0
 26
0.0
 36
1.0
 17
0.0
 27
0.0
 37
0.0
 40
341.0
 41
1.24
 42
50.0
 43
0.0
 44
0.0
 50
0.0
 51
0.0
 71
     0
 72
   100
 73
     1
 74
     3
 75
     0
 76
     0
 77
     0
 78
     0
  0
ENDTAB
  0
TABLE
  2
LTYPE
  5
5
330
0
100
AcDbSymbolTable
 70
     1
  0
LTYPE
  5
14
330
5
100
AcDbSymbolTableRecord
100
AcDbLinetypeTableRecord
  2
BYBLOCK
 70
     0
  3

 72
    65
 73
     0
 40
0.0
  0
LTYPE
  5
15
330
5
100
AcDbSymbolTableRecord
100
AcDbLinetypeTableRecord
  2
BYLAYER
 70
     0
  3

 72
    65
 73
     0
 40
0.0
  0
LTYPE
  5
16
330
5
100
AcDbSymbolTableRecord
100
AcDbLinetypeTableRecord
  2
CONTINUOUS
 70
     0
  3
Solid line
 72
    65
 73
     0
 40
0.0
  0
ENDTAB
  0
TABLE
  2
LAYER
  5
2
100
AcDbSymbolTable
 70
2
  0
LAYER
  5
50
100
AcDbSymbolTableRecord
100
AcDbLayerTableRecord
  2
0
 70
0
  6
CONTINUOUS
  0
LAYER
  5
51
100
AcDbSymbolTableRecord
100
AcDbLayerTableRecord
  2
Layer_1
 70
0
  6
CONTINUOUS
  0
ENDTAB
  0
TABLE
  2
STYLE
  5
3
330
0
100
AcDbSymbolTable
 70
     1
  0
STYLE
  5
11
330
3
100
AcDbSymbolTableRecord
100
AcDbTextStyleTableRecord
  2
STANDARD
 70
     0
 40
0.0
 41
1.0
 50
0.0
 71
     0
 42
2.5
  3
txt
  4

  0
ENDTAB
  0
TABLE
  2
VIEW
  5
6
330
0
100
AcDbSymbolTable
 70
     0
  0
ENDTAB
  0
TABLE
  2
UCS
  5
7
330
0
100
AcDbSymbolTable
 70
     0
  0
ENDTAB
  0
TABLE
  2
APPID
  5
9
330
0
100
AcDbSymbolTable
 70
     2
  0
APPID
  5
12
330
9
100
AcDbSymbolTableRecord
100
AcDbRegAppTableRecord
  2
ACAD
 70
     0
  0
ENDTAB
  0
TABLE
  2
DIMSTYLE
  5
A
330
0
100
AcDbSymbolTable
 70
     1
  0
DIMSTYLE
105
27
330
A
100
AcDbSymbolTableRecord
100
AcDbDimStyleTableRecord
  2
ISO-25
 70
     0
  3

  4

  5

  6

  7

 40
1.0
 41
2.5
 42
0.625
 43
3.75
 44
1.25
 45
0.0
 46
0.0
 47
0.0
 48
0.0
140
2.5
141
2.5
142
0.0
143
0.03937007874016
144
1.0
145
0.0
146
1.0
147
0.625
 71
     0
 72
     0
 73
     0
 74
     0
 75
     0
 76
     0
 77
     1
 78
     8
170
     0
171
     3
172
     1
173
     0
174
     0
175
     0
176
     0
177
     0
178
     0
270
     2
271
     2
272
     2
273
     2
274
     3
340
11
275
     0
280
     0
281
     0
282
     0
283
     0
284
     8
285
     0
286
     0
287
     3
288
     0
  0
ENDTAB
  0
TABLE
  2
BLOCK_RECORD
  5
1
330
0
100
AcDbSymbolTable
 70
     1
  0
BLOCK_RECORD
  5
1F
330
1
100
AcDbSymbolTableRecord
100
AcDbBlockTableRecord
  2
*MODEL_SPACE
  0
BLOCK_RECORD
  5
1B
330
1
100
AcDbSymbolTableRecord
100
AcDbBlockTableRecord
  2
*PAPER_SPACE
  0
ENDTAB
  0
ENDSEC
  0
SECTION
  2
BLOCKS
  0
BLOCK
  5
20
330
1F
100
AcDbEntity
  8
0
100
AcDbBlockBegin
  2
*MODEL_SPACE
 70
     0
 10
0.0
 20
0.0
 30
0.0
  3
*MODEL_SPACE
  1

  0
ENDBLK
  5
21
330
1F
100
AcDbEntity
  8
0
100
AcDbBlockEnd
  0
BLOCK
  5
1C
330
1B
100
AcDbEntity
 67
     1
  8
0
100
AcDbBlockBegin
  2
*PAPER_SPACE
  1

  0
ENDBLK
  5
1D
330
1B
100
AcDbEntity
 67
     1
  8
0
100
AcDbBlockEnd
  0
ENDSEC
  0
SECTION
  2
ENTITIES
  0
SPLINE
  5
100
100
AcDbEntity
  8
Layer_1
 62
7
100
AcDbSpline
 70
8
 71
3
 72
8
 73
4
 74
0
 40
0
 40
0
 40
0
 40
0
 40
1
 40
1
 40
1
 40
1
 10
17.929559
 20
49.070075
 30
0.0
 10
17.961573
 20
49.057639
 30
0.0
 10
18.034598
 20
49.076160
 30
0.0
 10
18.063702
 20
49.089125
 30
0.0
  0
SPLINE
  5
101
100
AcDbEntity
  8
Layer_1
 62
7
100
AcDbSpline
 70
8
 71
3
 72
8
 73
4
 74
0
 40
0
 40
0
 40
0
 40
0
 40
1
 40
1
 40
1
 40
1
 10
18.063702
 20
49.089125
 30
0.0
 10
18.081959
 20
49.083833
 30
0.0
 10
18.110798
 20
49.124314
 30
0.0
 10
18.117677
 20
49.154741
 30
0.0
  0
LWPOLYLINE
  5
102
100
AcDbEntity
  8
Layer_1
 62
7
100
AcDbPolyline
 90
3
 70
0
 10
18.097304
 20
48.986996
 30
0.0
 10
17.929559
 20
48.986996
 30
0.0
 10
17.929559
 20
49.070075
 30
0.0
  0
LWPOLYLINE
  5
103
100
AcDbEntity
  8
Layer_1
 62
7
100
AcDbPolyline
 90
5
 70
0
 10
18.117677
 20
49.154741
 30
0.0
 10
18.180384
 20
49.154741
 30
0.0
 10
18.180384
 20
48.566837
 30
0.0
 10
18.097304
 20
48.566837
 30
0.0
 10
18.097304
 20
48.986996
 30
0.0
  0
SPLINE
  5
104
100
AcDbEntity
  8
Layer_1
 62
7
100
AcDbSpline
 70
8
 71
3
 72
8
 73
4
 74
0
 40
0
 40
0
 40
0
 40
0
 40
1
 40
1
 40
1
 40
1
 10
17.043998
 20
48.057514
 30
0.0
 10
17.025742
 20
48.067039
 30
0.0
 10
17.014100
 20
48.102758
 30
0.0
 10
16.981292
 20
48.117310
 30
0.0
  0
SPLINE
  5
105
100
AcDbEntity
  8
Layer_1
 62
7
100
AcDbSpline
 70
8
 71
3
 72
8
 73
4
 74
0
 40
0
 40
0
 40
0
 40
0
 40
1
 40
1
 40
1
 40
1
 10
16.981292
 20
48.117310
 30
0.0
 10
16.929434
 20
48.128423
 30
0.0
 10
16.907473
 20
48.140594
 30
0.0
 10
16.857202
 20
48.140594
 30
0.0
  0
SPLINE
  5
106
100
AcDbEntity
  8
Layer_1
 62
7
100
AcDbSpline
 70
8
 71
3
 72
8
 73
4
 74
0
 40
0
 40
0
 40
0
 40
0
 40
1
 40
1
 40
1
 40
1
 10
16.857202
 20
48.140594
 30
0.0
 10
16.774123
 20
48.128423
 30
0.0
 10
16.725969
 20
48.122073
 30
0.0
 10
16.685223
 20
48.085296
 30
0.0
  0
SPLINE
  5
107
100
AcDbEntity
  8
Layer_1
 62
7
100
AcDbSpline
 70
8
 71
3
 72
8
 73
4
 74
0
 40
0
 40
0
 40
0
 40
0
 40
1
 40
1
 40
1
 40
1
 10
16.685223
 20
48.085296
 30
0.0
 10
16.630190
 20
48.024441
 30
0.0
 10
16.623840
 20
47.997719
 30
0.0
 10
16.623840
 20
47.930514
 30
0.0
  0
SPLINE
  5
108
100
AcDbEntity
  8
Layer_1
 62
7
100
AcDbSpline
 70
8
 71
3
 72
8
 73
4
 74
0
 40
0
 40
0
 40
0
 40
0
 40
1
 40
1
 40
1
 40
1
 10
16.623840
 20
47.930514
 30
0.0
 10
16.598969
 20
47.860929
 30
0.0
 10
16.643154
 20
47.814362
 30
0.0
 10
16.682313
 20
47.777585
 30
0.0
  0
SPLINE
  5
109
100
AcDbEntity
  8
Layer_1
 62
7
100
AcDbSpline
 70
8
 71
3
 72
8
 73
4
 74
0
 40
0
 40
0
 40
0
 40
0
 40
1
 40
1
 40
1
 40
1
 10
16.682313
 20
47.777585
 30
0.0
 10
16.707713
 20
47.724933
 30
0.0
 10
16.774388
 20
47.722023
 30
0.0
 10
16.842650
 20
47.722023
 30
0.0
  0
SPLINE
  5
10a
100
AcDbEntity
  8
Layer_1
 62
7
100
AcDbSpline
 70
8
 71
3
 72
8
 73
4
 74
0
 40
0
 40
0
 40
0
 40
0
 40
1
 40
1
 40
1
 40
1
 10
16.842650
 20
47.722023
 30
0.0
 10
16.898477
 20
47.693712
 30
0.0
 10
16.951394
 20
47.736575
 30
0.0
 10
16.988436
 20
47.765944
 30
0.0
  0
SPLINE
  5
10b
100
AcDbEntity
  8
Layer_1
 62
7
100
AcDbSpline
 70
8
 71
3
 72
8
 73
4
 74
0
 40
0
 40
0
 40
0
 40
0
 40
1
 40
1
 40
1
 40
1
 10
16.988436
 20
47.765944
 30
0.0
 10
17.003517
 20
47.783406
 30
0.0
 10
17.043998
 20
47.833148
 30
0.0
 10
17.043998
 20
47.881037
 30
0.0
  0
LWPOLYLINE
  5
10c
100
AcDbEntity
  8
Layer_1
 62
7
100
AcDbPolyline
 90
2
 70
0
 10
17.127077
 20
48.057514
 30
0.0
 10
17.043998
 20
48.057514
 30
0.0
  0
SPLINE
  5
10d
100
AcDbEntity
  8
Layer_1
 62
7
100
AcDbSpline
 70
8
 71
3
 72
8
 73
4
 74
0
 40
0
 40
0
 40
0
 40
0
 40
1
 40
1
 40
1
 40
1
 10
17.048232
 20
47.741073
 30
0.0
 10
17.013307
 20
47.703502
 30
0.0
 10
16.993198
 20
47.681277
 30
0.0
 10
16.956421
 20
47.663814
 30
0.0
  0
SPLINE
  5
10e
100
AcDbEntity
  8
Layer_1
 62
7
100
AcDbSpline
 70
8
 71
3
 72
8
 73
4
 74
0
 40
0
 40
0
 40
0
 40
0
 40
1
 40
1
 40
1
 40
1
 10
16.956421
 20
47.663814
 30
0.0
 10
16.909061
 20
47.637621
 30
0.0
 10
16.879163
 20
47.637621
 30
0.0
 10
16.832332
 20
47.637621
 30
0.0
  0
SPLINE
  5
10f
100
AcDbEntity
  8
Layer_1
 62
7
100
AcDbSpline
 70
8
 71
3
 72
8
 73
4
 74
0
 40
0
 40
0
 40
0
 40
0
 40
1
 40
1
 40
1
 40
1
 10
16.832332
 20
47.637621
 30
0.0
 10
16.745019
 20
47.637621
 30
0.0
 10
16.675434
 20
47.664079
 30
0.0
 10
16.620929
 20
47.717789
 30
0.0
  0
SPLINE
  5
110
100
AcDbEntity
  8
Layer_1
 62
7
100
AcDbSpline
 70
8
 71
3
 72
8
 73
4
 74
0
 40
0
 40
0
 40
0
 40
0
 40
1
 40
1
 40
1
 40
1
 10
16.620929
 20
47.717789
 30
0.0
 10
16.543671
 20
47.745306
 30
0.0
 10
16.540761
 20
47.842408
 30
0.0
 10
16.540761
 20
47.929191
 30
0.0
  0
SPLINE
  5
111
100
AcDbEntity
  8
Layer_1
 62
7
100
AcDbSpline
 70
8
 71
3
 72
8
 73
4
 74
0
 40
0
 40
0
 40
0
 40
0
 40
1
 40
1
 40
1
 40
1
 10
16.540761
 20
47.929191
 30
0.0
 10
16.512450
 20
48.016769
 30
0.0
 10
16.568807
 20
48.092439
 30
0.0
 10
16.625427
 20
48.145091
 30
0.0
  0
SPLINE
  5
112
100
AcDbEntity
  8
Layer_1
 62
7
100
AcDbSpline
 70
8
 71
3
 72
8
 73
4
 74
0
 40
0
 40
0
 40
0
 40
0
 40
1
 40
1
 40
1
 40
1
 10
16.625427
 20
48.145091
 30
0.0
 10
16.657442
 20
48.184779
 30
0.0
 10
16.760365
 20
48.225260
 30
0.0
 10
16.858790
 20
48.225260
 30
0.0
  0
SPLINE
  5
113
100
AcDbEntity
  8
Layer_1
 62
7
100
AcDbSpline
 70
8
 71
3
 72
8
 73
4
 74
0
 40
0
 40
0
 40
0
 40
0
 40
1
 40
1
 40
1
 40
1
 10
16.858790
 20
48.225260
 30
0.0
 10
16.922819
 20
48.215735
 30
0.0
 10
16.993198
 20
48.209914
 30
0.0
 10
17.041088
 20
48.180016
 30
0.0
  0
SPLINE
  5
114
100
AcDbEntity
  8
Layer_1
 62
7
100
AcDbSpline
 70
8
 71
3
 72
8
 73
4
 74
0
 40
0
 40
0
 40
0
 40
0
 40
1
 40
1
 40
1
 40
1
 10
17.041088
 20
48.180016
 30
0.0
 10
17.081040
 20
48.124719
 30
0.0
 10
17.118346
 20
48.109108
 30
0.0
 10
17.127077
 20
48.057514
 30
0.0
  0
LWPOLYLINE
  5
115
100
AcDbEntity
  8
Layer_1
 62
7
100
AcDbPolyline
 90
8
 70
0
 10
17.043998
 20
47.881037
 30
0.0
 10
17.043998
 20
47.889769
 30
0.0
 10
16.850059
 20
47.889769
 30
0.0
 10
16.850059
 20
47.973112
 30
0.0
 10
17.127077
 20
47.973112
 30
0.0
 10
17.127077
 20
47.637621
 30
0.0
 10
17.071779
 20
47.637621
 30
0.0
 10
17.048232
 20
47.741073
 30
0.0
  0
LWPOLYLINE
  5
116
100
AcDbEntity
  8
Layer_1
 62
7
100
AcDbPolyline
 90
1
 70
1
 10
17.127077
 20
48.057514
 30
0.0
  0
SPLINE
  5
117
100
AcDbEntity
  8
Layer_1
 62
7
100
AcDbSpline
 70
8
 71
3
 72
8
 73
4
 74
0
 40
0
 40
0
 40
0
 40
0
 40
1
 40
1
 40
1
 40
1
 10
17.583484
 20
47.822829
 30
0.0
 10
17.587982
 20
47.788169
 30
0.0
 10
17.595654
 20
47.801133
 30
0.0
 10
17.599623
 20
47.793725
 30
0.0
  0
SPLINE
  5
118
100
AcDbEntity
  8
Layer_1
 62
7
100
AcDbSpline
 70
8
 71
3
 72
8
 73
4
 74
0
 40
0
 40
0
 40
0
 40
0
 40
1
 40
1
 40
1
 40
1
 10
17.599623
 20
47.793725
 30
0.0
 10
17.596713
 20
47.773616
 30
0.0
 10
17.608619
 20
47.779437
 30
0.0
 10
17.612852
 20
47.771764
 30
0.0
  0
LWPOLYLINE
  5
119
100
AcDbEntity
  8
Layer_1
 62
7
100
AcDbPolyline
 90
3
 70
0
 10
17.194017
 20
48.248544
 30
0.0
 10
17.287415
 20
48.248544
 30
0.0
 10
17.583484
 20
47.822829
 30
0.0
  0
SPLINE
  5
11a
100
AcDbEntity
  8
Layer_1
 62
7
100
AcDbSpline
 70
8
 71
3
 72
8
 73
4
 74
0
 40
0
 40
0
 40
0
 40
0
 40
1
 40
1
 40
1
 40
1
 10
17.300644
 20
48.092439
 30
0.0
 10
17.295088
 20
48.078681
 30
0.0
 10
17.292707
 20
48.104610
 30
0.0
 10
17.289002
 20
48.111489
 30
0.0
  0
SPLINE
  5
11b
100
AcDbEntity
  8
Layer_1
 62
7
100
AcDbSpline
 70
8
 71
3
 72
8
 73
4
 74
0
 40
0
 40
0
 40
0
 40
0
 40
1
 40
1
 40
1
 40
1
 10
17.289002
 20
48.111489
 30
0.0
 10
17.257252
 20
48.092439
 30
0.0
 10
17.282123
 20
48.126571
 30
0.0
 10
17.277361
 20
48.136360
 30
0.0
  0
LWPOLYLINE
  5
11c
100
AcDbEntity
  8
Layer_1
 62
7
100
AcDbPolyline
 90
6
 70
0
 10
17.612852
 20
47.771764
 30
0.0
 10
17.612852
 20
48.248544
 30
0.0
 10
17.697254
 20
48.248544
 30
0.0
 10
17.697254
 20
47.660904
 30
0.0
 10
17.603857
 20
47.660904
 30
0.0
 10
17.300644
 20
48.092439
 30
0.0
  0
LWPOLYLINE
  5
11d
100
AcDbEntity
  8
Layer_1
 62
7
100
AcDbPolyline
 90
4
 70
0
 10
17.277361
 20
48.136360
 30
0.0
 10
17.277361
 20
47.660904
 30
0.0
 10
17.194017
 20
47.660904
 30
0.0
 10
17.194017
 20
48.248544
 30
0.0
  0
SPLINE
  5
11e
100
AcDbEntity
  8
Layer_1
 62
7
100
AcDbSpline
 70
8
 71
3
 72
8
 73
4
 74
0
 40
0
 40
0
 40
0
 40
0
 40
1
 40
1
 40
1
 40
1
 10
18.030894
 20
47.769119
 30
0.0
 10
18.081165
 20
47.740808
 30
0.0
 10
18.139638
 20
47.786846
 30
0.0
 10
18.170859
 20
47.823094
 30
0.0
  0
SPLINE
  5
11f
100
AcDbEntity
  8
Layer_1
 62
7
100
AcDbSpline
 70
8
 71
3
 72
8
 73
4
 74
0
 40
0
 40
0
 40
0
 40
0
 40
1
 40
1
 40
1
 40
1
 10
18.170859
 20
47.823094
 30
0.0
 10
18.175621
 20
47.843996
 30
0.0
 10
18.219013
 20
47.913846
 30
0.0
 10
18.219013
 20
47.987929
 30
0.0
  0
SPLINE
  5
120
100
AcDbEntity
  8
Layer_1
 62
7
100
AcDbSpline
 70
8
 71
3
 72
8
 73
4
 74
0
 40
0
 40
0
 40
0
 40
0
 40
1
 40
1
 40
1
 40
1
 10
18.219013
 20
47.987929
 30
0.0
 10
18.206577
 20
48.043227
 30
0.0
 10
18.202344
 20
48.100112
 30
0.0
 10
18.169536
 20
48.135302
 30
0.0
  0
SPLINE
  5
121
100
AcDbEntity
  8
Layer_1
 62
7
100
AcDbSpline
 70
8
 71
3
 72
8
 73
4
 74
0
 40
0
 40
0
 40
0
 40
0
 40
1
 40
1
 40
1
 40
1
 10
18.169536
 20
48.135302
 30
0.0
 10
18.109740
 20
48.144298
 30
0.0
 10
18.089896
 20
48.187689
 30
0.0
 10
18.030894
 20
48.187689
 30
0.0
  0
LWPOLYLINE
  5
122
100
AcDbEntity
  8
Layer_1
 62
7
100
AcDbPolyline
 90
3
 70
0
 10
17.883521
 20
48.187689
 30
0.0
 10
17.883521
 20
47.769119
 30
0.0
 10
18.030894
 20
47.769119
 30
0.0
  0
LWPOLYLINE
  5
123
100
AcDbEntity
  8
Layer_1
 62
7
100
AcDbPolyline
 90
2
 70
0
 10
18.030894
 20
48.187689
 30
0.0
 10
17.883521
 20
48.187689
 30
0.0
  0
SPLINE
  5
124
100
AcDbEntity
  8
Layer_1
 62
7
100
AcDbSpline
 70
8
 71
3
 72
8
 73
4
 74
0
 40
0
 40
0
 40
0
 40
0
 40
1
 40
1
 40
1
 40
1
 10
18.036715
 20
48.272356
 30
0.0
 10
18.109740
 20
48.262831
 30
0.0
 10
18.189115
 20
48.247485
 30
0.0
 10
18.235152
 20
48.198008
 30
0.0
  0
SPLINE
  5
125
100
AcDbEntity
  8
Layer_1
 62
7
100
AcDbSpline
 70
8
 71
3
 72
8
 73
4
 74
0
 40
0
 40
0
 40
0
 40
0
 40
1
 40
1
 40
1
 40
1
 10
18.235152
 20
48.198008
 30
0.0
 10
18.263198
 20
48.133714
 30
0.0
 10
18.303679
 20
48.078946
 30
0.0
 10
18.303679
 20
47.987929
 30
0.0
  0
SPLINE
  5
126
100
AcDbEntity
  8
Layer_1
 62
7
100
AcDbSpline
 70
8
 71
3
 72
8
 73
4
 74
0
 40
0
 40
0
 40
0
 40
0
 40
1
 40
1
 40
1
 40
1
 10
18.303679
 20
47.987929
 30
0.0
 10
18.294154
 20
47.884741
 30
0.0
 10
18.279602
 20
47.818066
 30
0.0
 10
18.232242
 20
47.764885
 30
0.0
  0
SPLINE
  5
127
100
AcDbEntity
  8
Layer_1
 62
7
100
AcDbSpline
 70
8
 71
3
 72
8
 73
4
 74
0
 40
0
 40
0
 40
0
 40
0
 40
1
 40
1
 40
1
 40
1
 10
18.232242
 20
47.764885
 30
0.0
 10
18.168742
 20
47.684452
 30
0.0
 10
18.119000
 20
47.684452
 30
0.0
 10
18.033804
 20
47.684452
 30
0.0
  0
LWPOLYLINE
  5
128
100
AcDbEntity
  8
Layer_1
 62
7
100
AcDbPolyline
 90
2
 70
0
 10
17.800442
 20
48.272356
 30
0.0
 10
18.036715
 20
48.272356
 30
0.0
  0
LWPOLYLINE
  5
129
100
AcDbEntity
  8
Layer_1
 62
7
100
AcDbPolyline
 90
3
 70
0
 10
18.033804
 20
47.684452
 30
0.0
 10
17.800442
 20
47.684452
 30
0.0
 10
17.800442
 20
48.272356
 30
0.0
  0
SPLINE
  5
12a
100
AcDbEntity
  8
Layer_1
 62
7
100
AcDbSpline
 70
8
 71
3
 72
8
 73
4
 74
0
 40
0
 40
0
 40
0
 40
0
 40
1
 40
1
 40
1
 40
1
 10
20.125600
 20
48.830891
 30
0.0
 10
20.139094
 20
48.821366
 30
0.0
 10
20.180898
 20
48.866346
 30
0.0
 10
20.195715
 20
48.887777
 30
0.0
  0
SPLINE
  5
12b
100
AcDbEntity
  8
Layer_1
 62
7
100
AcDbSpline
 70
8
 71
3
 72
8
 73
4
 74
0
 40
0
 40
0
 40
0
 40
0
 40
1
 40
1
 40
1
 40
1
 10
20.195715
 20
48.887777
 30
0.0
 10
20.200213
 20
48.895450
 30
0.0
 10
20.218998
 20
48.933285
 30
0.0
 10
20.218998
 20
48.960802
 30
0.0
  0
SPLINE
  5
12c
100
AcDbEntity
  8
Layer_1
 62
7
100
AcDbSpline
 70
8
 71
3
 72
8
 73
4
 74
0
 40
0
 40
0
 40
0
 40
0
 40
1
 40
1
 40
1
 40
1
 10
20.218998
 20
48.960802
 30
0.0
 10
20.200213
 20
48.986996
 30
0.0
 10
20.207357
 20
49.019804
 30
0.0
 10
20.184073
 20
49.039383
 30
0.0
  0
SPLINE
  5
12d
100
AcDbEntity
  8
Layer_1
 62
7
100
AcDbSpline
 70
8
 71
3
 72
8
 73
4
 74
0
 40
0
 40
0
 40
0
 40
0
 40
1
 40
1
 40
1
 40
1
 10
20.184073
 20
49.039383
 30
0.0
 10
20.153646
 20
49.057639
 30
0.0
 10
20.129834
 20
49.070075
 30
0.0
 10
20.091998
 20
49.070075
 30
0.0
  0
SPLINE
  5
12e
100
AcDbEntity
  8
Layer_1
 62
7
100
AcDbSpline
 70
8
 71
3
 72
8
 73
4
 74
0
 40
0
 40
0
 40
0
 40
0
 40
1
 40
1
 40
1
 40
1
 10
20.091998
 20
49.070075
 30
0.0
 10
20.045696
 20
49.057639
 30
0.0
 10
20.022413
 20
49.055787
 30
0.0
 10
20.000188
 20
49.027741
 30
0.0
  0
SPLINE
  5
12f
100
AcDbEntity
  8
Layer_1
 62
7
100
AcDbSpline
 70
8
 71
3
 72
8
 73
4
 74
0
 40
0
 40
0
 40
0
 40
0
 40
1
 40
1
 40
1
 40
1
 10
20.000188
 20
49.027741
 30
0.0
 10
19.971084
 20
48.970062
 30
0.0
 10
19.968173
 20
48.960008
 30
0.0
 10
19.968173
 20
48.909737
 30
0.0
  0
LWPOLYLINE
  5
130
100
AcDbEntity
  8
Layer_1
 62
7
100
AcDbPolyline
 90
2
 70
0
 10
20.070302
 20
48.807608
 30
0.0
 10
20.125600
 20
48.830891
 30
0.0
  0
SPLINE
  5
131
100
AcDbEntity
  8
Layer_1
 62
7
100
AcDbSpline
 70
8
 71
3
 72
8
 73
4
 74
0
 40
0
 40
0
 40
0
 40
0
 40
1
 40
1
 40
1
 40
1
 10
19.883507
 20
48.916881
 30
0.0
 10
19.883507
 20
48.966623
 30
0.0
 10
19.901763
 20
49.047321
 30
0.0
 10
19.939069
 20
49.090448
 30
0.0
  0
SPLINE
  5
132
100
AcDbEntity
  8
Layer_1
 62
7
100
AcDbSpline
 70
8
 71
3
 72
8
 73
4
 74
0
 40
0
 40
0
 40
0
 40
0
 40
1
 40
1
 40
1
 40
1
 10
19.939069
 20
49.090448
 30
0.0
 10
19.958384
 20
49.114260
 30
0.0
 10
20.028234
 20
49.154741
 30
0.0
 10
20.093586
 20
49.154741
 30
0.0
  0
SPLINE
  5
133
100
AcDbEntity
  8
Layer_1
 62
7
100
AcDbSpline
 70
8
 71
3
 72
8
 73
4
 74
0
 40
0
 40
0
 40
0
 40
0
 40
1
 40
1
 40
1
 40
1
 10
20.093586
 20
49.154741
 30
0.0
 10
20.147825
 20
49.145216
 30
0.0
 10
20.206298
 20
49.137544
 30
0.0
 10
20.245192
 20
49.103677
 30
0.0
  0
SPLINE
  5
134
100
AcDbEntity
  8
Layer_1
 62
7
100
AcDbSpline
 70
8
 71
3
 72
8
 73
4
 74
0
 40
0
 40
0
 40
0
 40
0
 40
1
 40
1
 40
1
 40
1
 10
20.245192
 20
49.103677
 30
0.0
 10
20.256834
 20
49.047056
 30
0.0
 10
20.303665
 20
49.026948
 30
0.0
 10
20.303665
 20
48.973766
 30
0.0
  0
SPLINE
  5
135
100
AcDbEntity
  8
Layer_1
 62
7
100
AcDbSpline
 70
8
 71
3
 72
8
 73
4
 74
0
 40
0
 40
0
 40
0
 40
0
 40
1
 40
1
 40
1
 40
1
 10
20.303665
 20
48.973766
 30
0.0
 10
20.287790
 20
48.919791
 30
0.0
 10
20.292288
 20
48.893862
 30
0.0
 10
20.270063
 20
48.862906
 30
0.0
  0
SPLINE
  5
136
100
AcDbEntity
  8
Layer_1
 62
7
100
AcDbSpline
 70
8
 71
3
 72
8
 73
4
 74
0
 40
0
 40
0
 40
0
 40
0
 40
1
 40
1
 40
1
 40
1
 10
20.270063
 20
48.862906
 30
0.0
 10
20.243075
 20
48.826394
 30
0.0
 10
20.213442
 20
48.804698
 30
0.0
 10
20.167934
 20
48.781414
 30
0.0
  0
LWPOLYLINE
  5
137
100
AcDbEntity
  8
Layer_1
 62
7
100
AcDbPolyline
 90
4
 70
0
 10
19.968173
 20
48.909737
 30
0.0
 10
19.968173
 20
48.902329
 30
0.0
 10
19.883507
 20
48.902329
 30
0.0
 10
19.883507
 20
48.916881
 30
0.0
  0
SPLINE
  5
138
100
AcDbEntity
  8
Layer_1
 62
7
100
AcDbSpline
 70
8
 71
3
 72
8
 73
4
 74
0
 40
0
 40
0
 40
0
 40
0
 40
1
 40
1
 40
1
 40
1
 10
20.113959
 20
48.760777
 30
0.0
 10
20.048607
 20
48.738023
 30
0.0
 10
20.026911
 20
48.721883
 30
0.0
 10
20.004686
 20
48.705479
 30
0.0
  0
SPLINE
  5
139
100
AcDbEntity
  8
Layer_1
 62
7
100
AcDbSpline
 70
8
 71
3
 72
8
 73
4
 74
0
 40
0
 40
0
 40
0
 40
0
 40
1
 40
1
 40
1
 40
1
 10
20.004686
 20
48.705479
 30
0.0
 10
19.973994
 20
48.673729
 30
0.0
 10
19.968438
 20
48.670819
 30
0.0
 10
19.960765
 20
48.651504
 30
0.0
  0
LWPOLYLINE
  5
13a
100
AcDbEntity
  8
Layer_1
 62
7
100
AcDbPolyline
 90
2
 70
0
 10
20.167934
 20
48.781414
 30
0.0
 10
20.113959
 20
48.760777
 30
0.0
  0
SPLINE
  5
13b
100
AcDbEntity
  8
Layer_1
 62
7
100
AcDbSpline
 70
8
 71
3
 72
8
 73
4
 74
0
 40
0
 40
0
 40
0
 40
0
 40
1
 40
1
 40
1
 40
1
 10
19.883507
 20
48.569748
 30
0.0
 10
19.883507
 20
48.622400
 30
0.0
 10
19.897000
 20
48.667644
 30
0.0
 10
19.924252
 20
48.702569
 30
0.0
  0
SPLINE
  5
13c
100
AcDbEntity
  8
Layer_1
 62
7
100
AcDbSpline
 70
8
 71
3
 72
8
 73
4
 74
0
 40
0
 40
0
 40
0
 40
0
 40
1
 40
1
 40
1
 40
1
 10
19.924252
 20
48.702569
 30
0.0
 10
19.937746
 20
48.723471
 30
0.0
 10
20.000188
 20
48.772419
 30
0.0
 10
20.070302
 20
48.807608
 30
0.0
  0
LWPOLYLINE
  5
13d
100
AcDbEntity
  8
Layer_1
 62
7
100
AcDbPolyline
 90
5
 70
0
 10
19.960765
 20
48.651504
 30
0.0
 10
20.303665
 20
48.651504
 30
0.0
 10
20.303665
 20
48.566837
 30
0.0
 10
19.883507
 20
48.566837
 30
0.0
 10
19.883507
 20
48.569748
 30
0.0
  0
LWPOLYLINE
  5
13e
100
AcDbEntity
  8
Layer_1
 62
7
100
AcDbPolyline
 90
1
 70
1
 10
20.070302
 20
48.807608
 30
0.0
  0
LWPOLYLINE
  5
13f
100
AcDbEntity
  8
Layer_1
 62
7
100
AcDbPolyline
 90
7
 70
1
 10
19.356986
 20
48.236108
 30
0.0
 10
19.448796
 20
48.236108
 30
0.0
 10
19.651467
 20
47.733135
 30
0.0
 10
19.851492
 20
48.236108
 30
0.0
 10
19.944625
 20
48.236108
 30
0.0
 10
19.692477
 20
47.648469
 30
0.0
 10
19.609398
 20
47.648469
 30
0.0
  0
SPLINE
  5
140
100
AcDbEntity
  8
Layer_1
 62
7
100
AcDbSpline
 70
8
 71
3
 72
8
 73
4
 74
0
 40
0
 40
0
 40
0
 40
0
 40
1
 40
1
 40
1
 40
1
 10
20.169257
 20
47.536550
 30
0.0
 10
20.197038
 20
47.514060
 30
0.0
 10
20.256040
 20
47.551102
 30
0.0
 10
20.281704
 20
47.580206
 30
0.0
  0
SPLINE
  5
141
100
AcDbEntity
  8
Layer_1
 62
7
100
AcDbSpline
 70
8
 71
3
 72
8
 73
4
 74
0
 40
0
 40
0
 40
0
 40
0
 40
1
 40
1
 40
1
 40
1
 10
20.281704
 20
47.580206
 30
0.0
 10
20.278794
 20
47.603754
 30
0.0
 10
20.319540
 20
47.653231
 30
0.0
 10
20.319540
 20
47.711439
 30
0.0
  0
SPLINE
  5
142
100
AcDbEntity
  8
Layer_1
 62
7
100
AcDbSpline
 70
8
 71
3
 72
8
 73
4
 74
0
 40
0
 40
0
 40
0
 40
0
 40
1
 40
1
 40
1
 40
1
 10
20.319540
 20
47.711439
 30
0.0
 10
20.309750
 20
47.744248
 30
0.0
 10
20.305782
 20
47.802191
 30
0.0
 10
20.278794
 20
47.829708
 30
0.0
  0
SPLINE
  5
143
100
AcDbEntity
  8
Layer_1
 62
7
100
AcDbSpline
 70
8
 71
3
 72
8
 73
4
 74
0
 40
0
 40
0
 40
0
 40
0
 40
1
 40
1
 40
1
 40
1
 10
20.278794
 20
47.829708
 30
0.0
 10
20.225084
 20
47.831031
 30
0.0
 10
20.216088
 20
47.872041
 30
0.0
 10
20.169257
 20
47.872041
 30
0.0
  0
LWPOLYLINE
  5
144
100
AcDbEntity
  8
Layer_1
 62
7
100
AcDbPolyline
 90
3
 70
0
 10
20.051252
 20
47.872041
 30
0.0
 10
20.051252
 20
47.536550
 30
0.0
 10
20.169257
 20
47.536550
 30
0.0
  0
LWPOLYLINE
  5
145
100
AcDbEntity
  8
Layer_1
 62
7
100
AcDbPolyline
 90
2
 70
0
 10
20.169257
 20
47.872041
 30
0.0
 10
20.051252
 20
47.872041
 30
0.0
  0
SPLINE
  5
146
100
AcDbEntity
  8
Layer_1
 62
7
100
AcDbSpline
 70
8
 71
3
 72
8
 73
4
 74
0
 40
0
 40
0
 40
0
 40
0
 40
1
 40
1
 40
1
 40
1
 10
20.173754
 20
47.938981
 30
0.0
 10
20.219263
 20
47.937923
 30
0.0
 10
20.295198
 20
47.919402
 30
0.0
 10
20.331182
 20
47.880773
 30
0.0
  0
SPLINE
  5
147
100
AcDbEntity
  8
Layer_1
 62
7
100
AcDbSpline
 70
8
 71
3
 72
8
 73
4
 74
0
 40
0
 40
0
 40
0
 40
0
 40
1
 40
1
 40
1
 40
1
 10
20.331182
 20
47.880773
 30
0.0
 10
20.354465
 20
47.828914
 30
0.0
 10
20.386479
 20
47.785258
 30
0.0
 10
20.386479
 20
47.711439
 30
0.0
  0
SPLINE
  5
148
100
AcDbEntity
  8
Layer_1
 62
7
100
AcDbSpline
 70
8
 71
3
 72
8
 73
4
 74
0
 40
0
 40
0
 40
0
 40
0
 40
1
 40
1
 40
1
 40
1
 10
20.386479
 20
47.711439
 30
0.0
 10
20.385686
 20
47.616983
 30
0.0
 10
20.367694
 20
47.576237
 30
0.0
 10
20.329859
 20
47.533639
 30
0.0
  0
SPLINE
  5
149
100
AcDbEntity
  8
Layer_1
 62
7
100
AcDbSpline
 70
8
 71
3
 72
8
 73
4
 74
0
 40
0
 40
0
 40
0
 40
0
 40
1
 40
1
 40
1
 40
1
 10
20.329859
 20
47.533639
 30
0.0
 10
20.278794
 20
47.469346
 30
0.0
 10
20.239371
 20
47.469346
 30
0.0
 10
20.172432
 20
47.469346
 30
0.0
  0
LWPOLYLINE
  5
14a
100
AcDbEntity
  8
Layer_1
 62
7
100
AcDbPolyline
 90
2
 70
0
 10
19.984048
 20
47.938981
 30
0.0
 10
20.173754
 20
47.938981
 30
0.0
  0
LWPOLYLINE
  5
14b
100
AcDbEntity
  8
Layer_1
 62
7
100
AcDbPolyline
 90
3
 70
0
 10
20.172432
 20
47.469346
 30
0.0
 10
19.984048
 20
47.469346
 30
0.0
 10
19.984048
 20
47.938981
 30
0.0
  0
SPLINE
  5
14c
100
AcDbEntity
  8
Layer_1
 62
7
100
AcDbSpline
 70
8
 71
3
 72
8
 73
4
 74
0
 40
0
 40
0
 40
0
 40
0
 40
1
 40
1
 40
1
 40
1
 10
20.654238
 20
47.560362
 30
0.0
 10
20.682019
 20
47.537608
 30
0.0
 10
20.741021
 20
47.574914
 30
0.0
 10
20.766686
 20
47.604019
 30
0.0
  0
SPLINE
  5
14d
100
AcDbEntity
  8
Layer_1
 62
7
100
AcDbSpline
 70
8
 71
3
 72
8
 73
4
 74
0
 40
0
 40
0
 40
0
 40
0
 40
1
 40
1
 40
1
 40
1
 10
20.766686
 20
47.604019
 30
0.0
 10
20.763511
 20
47.627302
 30
0.0
 10
20.804521
 20
47.677044
 30
0.0
 10
20.804521
 20
47.735252
 30
0.0
  0
SPLINE
  5
14e
100
AcDbEntity
  8
Layer_1
 62
7
100
AcDbSpline
 70
8
 71
3
 72
8
 73
4
 74
0
 40
0
 40
0
 40
0
 40
0
 40
1
 40
1
 40
1
 40
1
 10
20.804521
 20
47.735252
 30
0.0
 10
20.794732
 20
47.768060
 30
0.0
 10
20.790763
 20
47.826004
 30
0.0
 10
20.763511
 20
47.853256
 30
0.0
  0
SPLINE
  5
14f
100
AcDbEntity
  8
Layer_1
 62
7
100
AcDbSpline
 70
8
 71
3
 72
8
 73
4
 74
0
 40
0
 40
0
 40
0
 40
0
 40
1
 40
1
 40
1
 40
1
 10
20.763511
 20
47.853256
 30
0.0
 10
20.710065
 20
47.854844
 30
0.0
 10
20.701069
 20
47.895589
 30
0.0
 10
20.654238
 20
47.895589
 30
0.0
  0
LWPOLYLINE
  5
150
100
AcDbEntity
  8
Layer_1
 62
7
100
AcDbPolyline
 90
3
 70
0
 10
20.536234
 20
47.895589
 30
0.0
 10
20.536234
 20
47.560362
 30
0.0
 10
20.654238
 20
47.560362
 30
0.0
  0
LWPOLYLINE
  5
151
100
AcDbEntity
  8
Layer_1
 62
7
100
AcDbPolyline
 90
2
 70
0
 10
20.654238
 20
47.895589
 30
0.0
 10
20.536234
 20
47.895589
 30
0.0
  0
SPLINE
  5
152
100
AcDbEntity
  8
Layer_1
 62
7
100
AcDbSpline
 70
8
 71
3
 72
8
 73
4
 74
0
 40
0
 40
0
 40
0
 40
0
 40
1
 40
1
 40
1
 40
1
 10
20.658471
 20
47.962794
 30
0.0
 10
20.704244
 20
47.961735
 30
0.0
 10
20.779915
 20
47.942950
 30
0.0
 10
20.816163
 20
47.904321
 30
0.0
  0
SPLINE
  5
153
100
AcDbEntity
  8
Layer_1
 62
7
100
AcDbSpline
 70
8
 71
3
 72
8
 73
4
 74
0
 40
0
 40
0
 40
0
 40
0
 40
1
 40
1
 40
1
 40
1
 10
20.816163
 20
47.904321
 30
0.0
 10
20.839446
 20
47.852462
 30
0.0
 10
20.871725
 20
47.808806
 30
0.0
 10
20.871725
 20
47.735252
 30
0.0
  0
SPLINE
  5
154
100
AcDbEntity
  8
Layer_1
 62
7
100
AcDbSpline
 70
8
 71
3
 72
8
 73
4
 74
0
 40
0
 40
0
 40
0
 40
0
 40
1
 40
1
 40
1
 40
1
 10
20.871725
 20
47.735252
 30
0.0
 10
20.870402
 20
47.640796
 30
0.0
 10
20.852675
 20
47.600050
 30
0.0
 10
20.814575
 20
47.557187
 30
0.0
  0
SPLINE
  5
155
100
AcDbEntity
  8
Layer_1
 62
7
100
AcDbSpline
 70
8
 71
3
 72
8
 73
4
 74
0
 40
0
 40
0
 40
0
 40
0
 40
1
 40
1
 40
1
 40
1
 10
20.814575
 20
47.557187
 30
0.0
 10
20.763511
 20
47.493158
 30
0.0
 10
20.724352
 20
47.493158
 30
0.0
 10
20.657148
 20
47.493158
 30
0.0
  0
LWPOLYLINE
  5
156
100
AcDbEntity
  8
Layer_1
 62
7
100
AcDbPolyline
 90
2
 70
0
 10
20.469029
 20
47.962794
 30
0.0
 10
20.658471
 20
47.962794
 30
0.0
  0
SPLINE
  5
157
100
AcDbEntity
  8
Layer_1
 62
7
100
AcDbSpline
 70
8
 71
3
 72
8
 73
4
 74
0
 40
0
 40
0
 40
0
 40
0
 40
1
 40
1
 40
1
 40
1
 10
22.017900
 20
48.735112
 30
0.0
 10
21.989325
 20
48.684048
 30
0.0
 10
22.028484
 20
48.688281
 30
0.0
 10
22.049915
 20
48.673729
 30
0.0
  0
SPLINE
  5
158
100
AcDbEntity
  8
Layer_1
 62
7
100
AcDbSpline
 70
8
 71
3
 72
8
 73
4
 74
0
 40
0
 40
0
 40
0
 40
0
 40
1
 40
1
 40
1
 40
1
 10
22.049915
 20
48.673729
 30
0.0
 10
22.064467
 20
48.654679
 30
0.0
 10
22.103096
 20
48.651769
 30
0.0
 10
22.143313
 20
48.651769
 30
0.0
  0
SPLINE
  5
159
100
AcDbEntity
  8
Layer_1
 62
7
100
AcDbSpline
 70
8
 71
3
 72
8
 73
4
 74
0
 40
0
 40
0
 40
0
 40
0
 40
1
 40
1
 40
1
 40
1
 10
22.143313
 20
48.651769
 30
0.0
 10
22.173211
 20
48.623458
 30
0.0
 10
22.211046
 20
48.659441
 30
0.0
 10
22.233800
 20
48.675316
 30
0.0
  0
SPLINE
  5
15a
100
AcDbEntity
  8
Layer_1
 62
7
100
AcDbSpline
 70
8
 71
3
 72
8
 73
4
 74
0
 40
0
 40
0
 40
0
 40
0
 40
1
 40
1
 40
1
 40
1
 10
22.233800
 20
48.675316
 30
0.0
 10
22.250204
 20
48.685635
 30
0.0
 10
22.268725
 20
48.712094
 30
0.0
 10
22.268725
 20
48.739346
 30
0.0
  0
SPLINE
  5
15b
100
AcDbEntity
  8
Layer_1
 62
7
100
AcDbSpline
 70
8
 71
3
 72
8
 73
4
 74
0
 40
0
 40
0
 40
0
 40
0
 40
1
 40
1
 40
1
 40
1
 10
22.268725
 20
48.739346
 30
0.0
 10
22.250204
 20
48.738287
 30
0.0
 10
22.257348
 20
48.783796
 30
0.0
 10
22.235123
 20
48.797554
 30
0.0
  0
SPLINE
  5
15c
100
AcDbEntity
  8
Layer_1
 62
7
100
AcDbSpline
 70
8
 71
3
 72
8
 73
4
 74
0
 40
0
 40
0
 40
0
 40
0
 40
1
 40
1
 40
1
 40
1
 10
22.235123
 20
48.797554
 30
0.0
 10
22.206548
 20
48.797554
 30
0.0
 10
22.183000
 20
48.819514
 30
0.0
 10
22.143313
 20
48.819514
 30
0.0
  0
SPLINE
  5
15d
100
AcDbEntity
  8
Layer_1
 62
7
100
AcDbSpline
 70
8
 71
3
 72
8
 73
4
 74
0
 40
0
 40
0
 40
0
 40
0
 40
1
 40
1
 40
1
 40
1
 10
22.143313
 20
48.819514
 30
0.0
 10
22.126644
 20
48.797554
 30
0.0
 10
22.126644
 20
48.819514
 30
0.0
 10
22.120029
 20
48.819514
 30
0.0
  0
SPLINE
  5
15e
100
AcDbEntity
  8
Layer_1
 62
7
100
AcDbSpline
 70
8
 71
3
 72
8
 73
4
 74
0
 40
0
 40
0
 40
0
 40
0
 40
1
 40
1
 40
1
 40
1
 10
22.120029
 20
48.819514
 30
0.0
 10
22.114209
 20
48.797554
 30
0.0
 10
22.107594
 20
48.818721
 30
0.0
 10
22.100979
 20
48.818191
 30
0.0
  0
LWPOLYLINE
  5
15f
100
AcDbEntity
  8
Layer_1
 62
7
100
AcDbPolyline
 90
3
 70
0
 10
20.657148
 20
47.493158
 30
0.0
 10
20.469029
 20
47.493158
 30
0.0
 10
20.469029
 20
47.962794
 30
0.0
  0
SPLINE
  5
160
100
AcDbEntity
  8
Layer_1
 62
7
100
AcDbSpline
 70
8
 71
3
 72
8
 73
4
 74
0
 40
0
 40
0
 40
0
 40
0
 40
1
 40
1
 40
1
 40
1
 10
22.100979
 20
48.904181
 30
0.0
 10
22.079019
 20
48.885131
 30
0.0
 10
22.107329
 20
48.903387
 30
0.0
 10
22.111298
 20
48.902594
 30
0.0
  0
SPLINE
  5
161
100
AcDbEntity
  8
Layer_1
 62
7
100
AcDbSpline
 70
8
 71
3
 72
8
 73
4
 74
0
 40
0
 40
0
 40
0
 40
0
 40
1
 40
1
 40
1
 40
1
 10
22.111298
 20
48.902594
 30
0.0
 10
22.086692
 20
48.884073
 30
0.0
 10
22.117384
 20
48.902594
 30
0.0
 10
22.118442
 20
48.902594
 30
0.0
  0
LWPOLYLINE
  5
162
100
AcDbEntity
  8
Layer_1
 62
7
100
AcDbPolyline
 90
2
 70
0
 10
22.100979
 20
48.818191
 30
0.0
 10
22.100979
 20
48.904181
 30
0.0
  0
SPLINE
  5
163
100
AcDbEntity
  8
Layer_1
 62
7
100
AcDbSpline
 70
8
 71
3
 72
8
 73
4
 74
0
 40
0
 40
0
 40
0
 40
0
 40
1
 40
1
 40
1
 40
1
 10
22.139079
 20
48.902594
 30
0.0
 10
22.176121
 20
48.884073
 30
0.0
 10
22.215015
 20
48.909208
 30
0.0
 10
22.236711
 20
48.922966
 30
0.0
  0
SPLINE
  5
164
100
AcDbEntity
  8
Layer_1
 62
7
100
AcDbSpline
 70
8
 71
3
 72
8
 73
4
 74
0
 40
0
 40
0
 40
0
 40
0
 40
1
 40
1
 40
1
 40
1
 10
22.236711
 20
48.922966
 30
0.0
 10
22.250204
 20
48.911325
 30
0.0
 10
22.268725
 20
48.958156
 30
0.0
 10
22.268725
 20
48.987260
 30
0.0
  0
SPLINE
  5
165
100
AcDbEntity
  8
Layer_1
 62
7
100
AcDbSpline
 70
8
 71
3
 72
8
 73
4
 74
0
 40
0
 40
0
 40
0
 40
0
 40
1
 40
1
 40
1
 40
1
 10
22.268725
 20
48.987260
 30
0.0
 10
22.250204
 20
48.997844
 30
0.0
 10
22.257877
 20
49.034091
 30
0.0
 10
22.236711
 20
49.048644
 30
0.0
  0
SPLINE
  5
166
100
AcDbEntity
  8
Layer_1
 62
7
100
AcDbSpline
 70
8
 71
3
 72
8
 73
4
 74
0
 40
0
 40
0
 40
0
 40
0
 40
1
 40
1
 40
1
 40
1
 10
22.236711
 20
49.048644
 30
0.0
 10
22.208136
 20
49.058169
 30
0.0
 10
22.185646
 20
49.070339
 30
0.0
 10
22.144636
 20
49.070339
 30
0.0
  0
SPLINE
  5
167
100
AcDbEntity
  8
Layer_1
 62
7
100
AcDbSpline
 70
8
 71
3
 72
8
 73
4
 74
0
 40
0
 40
0
 40
0
 40
0
 40
1
 40
1
 40
1
 40
1
 10
22.144636
 20
49.070339
 30
0.0
 10
22.095688
 20
49.058169
 30
0.0
 10
22.072140
 20
49.063196
 30
0.0
 10
22.049915
 20
49.048644
 30
0.0
  0
SPLINE
  5
168
100
AcDbEntity
  8
Layer_1
 62
7
100
AcDbSpline
 70
8
 71
3
 72
8
 73
4
 74
0
 40
0
 40
0
 40
0
 40
0
 40
1
 40
1
 40
1
 40
1
 10
22.049915
 20
49.048644
 30
0.0
 10
22.020811
 20
49.028800
 30
0.0
 10
22.017900
 20
49.013454
 30
0.0
 10
22.017900
 20
48.987260
 30
0.0
  0
LWPOLYLINE
  5
169
100
AcDbEntity
  8
Layer_1
 62
7
100
AcDbPolyline
 90
2
 70
0
 10
22.118442
 20
48.902594
 30
0.0
 10
22.139079
 20
48.902594
 30
0.0
  0
SPLINE
  5
16a
100
AcDbEntity
  8
Layer_1
 62
7
100
AcDbSpline
 70
8
 71
3
 72
8
 73
4
 74
0
 40
0
 40
0
 40
0
 40
0
 40
1
 40
1
 40
1
 40
1
 10
21.933234
 20
48.991758
 30
0.0
 10
21.933234
 20
49.022979
 30
0.0
 10
21.951490
 20
49.079600
 30
0.0
 10
21.988796
 20
49.109762
 30
0.0
  0
SPLINE
  5
16b
100
AcDbEntity
  8
Layer_1
 62
7
100
AcDbSpline
 70
8
 71
3
 72
8
 73
4
 74
0
 40
0
 40
0
 40
0
 40
0
 40
1
 40
1
 40
1
 40
1
 10
21.988796
 20
49.109762
 30
0.0
 10
22.008111
 20
49.114525
 30
0.0
 10
22.076902
 20
49.155006
 30
0.0
 10
22.140402
 20
49.155006
 30
0.0
  0
SPLINE
  5
16c
100
AcDbEntity
  8
Layer_1
 62
7
100
AcDbSpline
 70
8
 71
3
 72
8
 73
4
 74
0
 40
0
 40
0
 40
0
 40
0
 40
1
 40
1
 40
1
 40
1
 10
22.140402
 20
49.155006
 30
0.0
 10
22.200463
 20
49.145481
 30
0.0
 10
22.259200
 20
49.140454
 30
0.0
 10
22.296507
 20
49.111350
 30
0.0
  0
SPLINE
  5
16d
100
AcDbEntity
  8
Layer_1
 62
7
100
AcDbSpline
 70
8
 71
3
 72
8
 73
4
 74
0
 40
0
 40
0
 40
0
 40
0
 40
1
 40
1
 40
1
 40
1
 10
22.296507
 20
49.111350
 30
0.0
 10
22.306561
 20
49.057375
 30
0.0
 10
22.353392
 20
49.043352
 30
0.0
 10
22.353392
 20
48.993081
 30
0.0
  0
SPLINE
  5
16e
100
AcDbEntity
  8
Layer_1
 62
7
100
AcDbSpline
 70
8
 71
3
 72
8
 73
4
 74
0
 40
0
 40
0
 40
0
 40
0
 40
1
 40
1
 40
1
 40
1
 10
22.353392
 20
48.993081
 30
0.0
 10
22.337782
 20
48.945456
 30
0.0
 10
22.345984
 20
48.937783
 30
0.0
 10
22.331432
 20
48.917410
 30
0.0
  0
SPLINE
  5
16f
100
AcDbEntity
  8
Layer_1
 62
7
100
AcDbSpline
 70
8
 71
3
 72
8
 73
4
 74
0
 40
0
 40
0
 40
0
 40
0
 40
1
 40
1
 40
1
 40
1
 10
22.331432
 20
48.917410
 30
0.0
 10
22.309471
 20
48.873489
 30
0.0
 10
22.296771
 20
48.881162
 30
0.0
 10
22.268725
 20
48.870579
 30
0.0
  0
SPLINE
  5
170
100
AcDbEntity
  8
Layer_1
 62
7
100
AcDbSpline
 70
8
 71
3
 72
8
 73
4
 74
0
 40
0
 40
0
 40
0
 40
0
 40
1
 40
1
 40
1
 40
1
 10
22.268725
 20
48.870579
 30
0.0
 10
22.277457
 20
48.853116
 30
0.0
 10
22.316879
 20
48.844385
 30
0.0
 10
22.331432
 20
48.821102
 30
0.0
  0
SPLINE
  5
171
100
AcDbEntity
  8
Layer_1
 62
7
100
AcDbSpline
 70
8
 71
3
 72
8
 73
4
 74
0
 40
0
 40
0
 40
0
 40
0
 40
1
 40
1
 40
1
 40
1
 10
22.331432
 20
48.821102
 30
0.0
 10
22.337782
 20
48.776123
 30
0.0
 10
22.353392
 20
48.771360
 30
0.0
 10
22.353392
 20
48.739346
 30
0.0
  0
SPLINE
  5
172
100
AcDbEntity
  8
Layer_1
 62
7
100
AcDbSpline
 70
8
 71
3
 72
8
 73
4
 74
0
 40
0
 40
0
 40
0
 40
0
 40
1
 40
1
 40
1
 40
1
 10
22.353392
 20
48.739346
 30
0.0
 10
22.337782
 20
48.661294
 30
0.0
 10
22.333284
 20
48.645948
 30
0.0
 10
22.293596
 20
48.613933
 30
0.0
  0
SPLINE
  5
173
100
AcDbEntity
  8
Layer_1
 62
7
100
AcDbSpline
 70
8
 71
3
 72
8
 73
4
 74
0
 40
0
 40
0
 40
0
 40
0
 40
1
 40
1
 40
1
 40
1
 10
22.293596
 20
48.613933
 30
0.0
 10
22.227979
 20
48.567366
 30
0.0
 10
22.202050
 20
48.567366
 30
0.0
 10
22.136169
 20
48.567366
 30
0.0
  0
SPLINE
  5
174
100
AcDbEntity
  8
Layer_1
 62
7
100
AcDbSpline
 70
8
 71
3
 72
8
 73
4
 74
0
 40
0
 40
0
 40
0
 40
0
 40
1
 40
1
 40
1
 40
1
 10
22.136169
 20
48.567366
 30
0.0
 10
22.068171
 20
48.567366
 30
0.0
 10
22.023986
 20
48.581919
 30
0.0
 10
21.987209
 20
48.611023
 30
0.0
  0
SPLINE
  5
175
100
AcDbEntity
  8
Layer_1
 62
7
100
AcDbSpline
 70
8
 71
3
 72
8
 73
4
 74
0
 40
0
 40
0
 40
0
 40
0
 40
1
 40
1
 40
1
 40
1
 10
21.987209
 20
48.611023
 30
0.0
 10
21.933234
 20
48.626369
 30
0.0
 10
21.933234
 20
48.680344
 30
0.0
 10
21.933234
 20
48.729027
 30
0.0
  0
LWPOLYLINE
  5
176
100
AcDbEntity
  8
Layer_1
 62
7
100
AcDbPolyline
 90
3
 70
0
 10
22.017900
 20
48.987260
 30
0.0
 10
21.933234
 20
48.987260
 30
0.0
 10
21.933234
 20
48.991758
 30
0.0
  0
SPLINE
  5
177
100
AcDbEntity
  8
Layer_1
 62
7
100
AcDbSpline
 70
8
 71
3
 72
8
 73
4
 74
0
 40
0
 40
0
 40
0
 40
0
 40
1
 40
1
 40
1
 40
1
 10
22.311059
 20
48.236637
 30
0.0
 10
22.400752
 20
48.227112
 30
0.0
 10
22.473777
 20
48.210444
 30
0.0
 10
22.525371
 20
48.157791
 30
0.0
  0
SPLINE
  5
178
100
AcDbEntity
  8
Layer_1
 62
7
100
AcDbSpline
 70
8
 71
3
 72
8
 73
4
 74
0
 40
0
 40
0
 40
0
 40
0
 40
1
 40
1
 40
1
 40
1
 10
22.525371
 20
48.157791
 30
0.0
 10
22.566911
 20
48.092175
 30
0.0
 10
22.604217
 20
48.034231
 30
0.0
 10
22.604217
 20
47.941891
 30
0.0
  0
SPLINE
  5
179
100
AcDbEntity
  8
Layer_1
 62
7
100
AcDbSpline
 70
8
 71
3
 72
8
 73
4
 74
0
 40
0
 40
0
 40
0
 40
0
 40
1
 40
1
 40
1
 40
1
 10
22.604217
 20
47.941891
 30
0.0
 10
22.598396
 20
47.846112
 30
0.0
 10
22.578023
 20
47.778644
 30
0.0
 10
22.525371
 20
47.725991
 30
0.0
  0
SPLINE
  5
17a
100
AcDbEntity
  8
Layer_1
 62
7
100
AcDbSpline
 70
8
 71
3
 72
8
 73
4
 74
0
 40
0
 40
0
 40
0
 40
0
 40
1
 40
1
 40
1
 40
1
 10
22.525371
 20
47.725991
 30
0.0
 10
22.463194
 20
47.648733
 30
0.0
 10
22.402075
 20
47.648733
 30
0.0
 10
22.311059
 20
47.648733
 30
0.0
  0
SPLINE
  5
17b
100
AcDbEntity
  8
Layer_1
 62
7
100
AcDbSpline
 70
8
 71
3
 72
8
 73
4
 74
0
 40
0
 40
0
 40
0
 40
0
 40
1
 40
1
 40
1
 40
1
 10
22.311059
 20
47.648733
 30
0.0
 10
22.216867
 20
47.648733
 30
0.0
 10
22.146488
 20
47.674398
 30
0.0
 10
22.095159
 20
47.725991
 30
0.0
  0
SPLINE
  5
17c
100
AcDbEntity
  8
Layer_1
 62
7
100
AcDbSpline
 70
8
 71
3
 72
8
 73
4
 74
0
 40
0
 40
0
 40
0
 40
0
 40
1
 40
1
 40
1
 40
1
 10
22.095159
 20
47.725991
 30
0.0
 10
22.020811
 20
47.752714
 30
0.0
 10
22.017900
 20
47.850346
 30
0.0
 10
22.017900
 20
47.941891
 30
0.0
  0
SPLINE
  5
17d
100
AcDbEntity
  8
Layer_1
 62
7
100
AcDbSpline
 70
8
 71
3
 72
8
 73
4
 74
0
 40
0
 40
0
 40
0
 40
0
 40
1
 40
1
 40
1
 40
1
 10
22.017900
 20
47.941891
 30
0.0
 10
21.989325
 20
48.029733
 30
0.0
 10
22.043300
 20
48.105933
 30
0.0
 10
22.095159
 20
48.157791
 30
0.0
  0
SPLINE
  5
17e
100
AcDbEntity
  8
Layer_1
 62
7
100
AcDbSpline
 70
8
 71
3
 72
8
 73
4
 74
0
 40
0
 40
0
 40
0
 40
0
 40
1
 40
1
 40
1
 40
1
 10
22.095159
 20
48.157791
 30
0.0
 10
22.123734
 20
48.196156
 30
0.0
 10
22.218454
 20
48.236637
 30
0.0
 10
22.311059
 20
48.236637
 30
0.0
  0
LWPOLYLINE
  5
17f
100
AcDbEntity
  8
Layer_1
 62
7
100
AcDbPolyline
 90
3
 70
0
 10
21.933234
 20
48.729027
 30
0.0
 10
21.933234
 20
48.735112
 30
0.0
 10
22.017900
 20
48.735112
 30
0.0
  0
SPLINE
  5
180
100
AcDbEntity
  8
Layer_1
 62
7
100
AcDbSpline
 70
8
 71
3
 72
8
 73
4
 74
0
 40
0
 40
0
 40
0
 40
0
 40
1
 40
1
 40
1
 40
1
 10
22.311059
 20
48.151971
 30
0.0
 10
22.243325
 20
48.139535
 30
0.0
 10
22.193319
 20
48.133450
 30
0.0
 10
22.156542
 20
48.096673
 30
0.0
  0
SPLINE
  5
181
100
AcDbEntity
  8
Layer_1
 62
7
100
AcDbSpline
 70
8
 71
3
 72
8
 73
4
 74
0
 40
0
 40
0
 40
0
 40
0
 40
1
 40
1
 40
1
 40
1
 10
22.156542
 20
48.096673
 30
0.0
 10
22.107329
 20
48.034496
 30
0.0
 10
22.100979
 20
48.008037
 30
0.0
 10
22.100979
 20
47.941891
 30
0.0
  0
SPLINE
  5
182
100
AcDbEntity
  8
Layer_1
 62
7
100
AcDbSpline
 70
8
 71
3
 72
8
 73
4
 74
0
 40
0
 40
0
 40
0
 40
0
 40
1
 40
1
 40
1
 40
1
 10
22.100979
 20
47.941891
 30
0.0
 10
22.076109
 20
47.872306
 30
0.0
 10
22.119236
 20
47.825739
 30
0.0
 10
22.156542
 20
47.788962
 30
0.0
  0
SPLINE
  5
183
100
AcDbEntity
  8
Layer_1
 62
7
100
AcDbSpline
 70
8
 71
3
 72
8
 73
4
 74
0
 40
0
 40
0
 40
0
 40
0
 40
1
 40
1
 40
1
 40
1
 10
22.156542
 20
47.788962
 30
0.0
 10
22.181148
 20
47.736310
 30
0.0
 10
22.244648
 20
47.733400
 30
0.0
 10
22.311059
 20
47.733400
 30
0.0
  0
SPLINE
  5
184
100
AcDbEntity
  8
Layer_1
 62
7
100
AcDbSpline
 70
8
 71
3
 72
8
 73
4
 74
0
 40
0
 40
0
 40
0
 40
0
 40
1
 40
1
 40
1
 40
1
 10
22.311059
 20
47.733400
 30
0.0
 10
22.374559
 20
47.704825
 30
0.0
 10
22.426946
 20
47.751656
 30
0.0
 10
22.464252
 20
47.788962
 30
0.0
  0
SPLINE
  5
185
100
AcDbEntity
  8
Layer_1
 62
7
100
AcDbSpline
 70
8
 71
3
 72
8
 73
4
 74
0
 40
0
 40
0
 40
0
 40
0
 40
1
 40
1
 40
1
 40
1
 10
22.464252
 20
47.788962
 30
0.0
 10
22.480657
 20
47.809864
 30
0.0
 10
22.521138
 20
47.876539
 30
0.0
 10
22.521138
 20
47.941891
 30
0.0
  0
SPLINE
  5
186
100
AcDbEntity
  8
Layer_1
 62
7
100
AcDbSpline
 70
8
 71
3
 72
8
 73
4
 74
0
 40
0
 40
0
 40
0
 40
0
 40
1
 40
1
 40
1
 40
1
 10
22.521138
 20
47.941891
 30
0.0
 10
22.511613
 20
48.003539
 30
0.0
 10
22.502088
 20
48.059366
 30
0.0
 10
22.464252
 20
48.096673
 30
0.0
  0
SPLINE
  5
187
100
AcDbEntity
  8
Layer_1
 62
7
100
AcDbSpline
 70
8
 71
3
 72
8
 73
4
 74
0
 40
0
 40
0
 40
0
 40
0
 40
1
 40
1
 40
1
 40
1
 10
22.464252
 20
48.096673
 30
0.0
 10
22.405779
 20
48.108579
 30
0.0
 10
22.375882
 20
48.151971
 30
0.0
 10
22.311059
 20
48.151971
 30
0.0
  0
LWPOLYLINE
  5
188
100
AcDbEntity
  8
Layer_1
 62
7
100
AcDbPolyline
 90
1
 70
1
 10
22.311059
 20
48.236637
 30
0.0
  0
LWPOLYLINE
  5
189
100
AcDbEntity
  8
Layer_1
 62
7
100
AcDbPolyline
 90
1
 70
1
 10
22.311059
 20
48.151971
 30
0.0
  0
SPLINE
  5
18a
100
AcDbEntity
  8
Layer_1
 62
7
100
AcDbSpline
 70
8
 71
3
 72
8
 73
4
 74
0
 40
0
 40
0
 40
0
 40
0
 40
1
 40
1
 40
1
 40
1
 10
22.754500
 20
47.911200
 30
0.0
 10
22.729629
 20
47.840291
 30
0.0
 10
22.767994
 20
47.818331
 30
0.0
 10
22.795246
 20
47.793196
 30
0.0
  0
SPLINE
  5
18b
100
AcDbEntity
  8
Layer_1
 62
7
100
AcDbSpline
 70
8
 71
3
 72
8
 73
4
 74
0
 40
0
 40
0
 40
0
 40
0
 40
1
 40
1
 40
1
 40
1
 10
22.795246
 20
47.793196
 30
0.0
 10
22.816148
 20
47.759594
 30
0.0
 10
22.865625
 20
47.756683
 30
0.0
 10
22.921982
 20
47.756683
 30
0.0
  0
SPLINE
  5
18c
100
AcDbEntity
  8
Layer_1
 62
7
100
AcDbSpline
 70
8
 71
3
 72
8
 73
4
 74
0
 40
0
 40
0
 40
0
 40
0
 40
1
 40
1
 40
1
 40
1
 10
22.921982
 20
47.756683
 30
0.0
 10
22.960082
 20
47.728373
 30
0.0
 10
23.020142
 20
47.769119
 30
0.0
 10
23.047394
 20
47.794519
 30
0.0
  0
SPLINE
  5
18d
100
AcDbEntity
  8
Layer_1
 62
7
100
AcDbSpline
 70
8
 71
3
 72
8
 73
4
 74
0
 40
0
 40
0
 40
0
 40
0
 40
1
 40
1
 40
1
 40
1
 10
23.047394
 20
47.794519
 30
0.0
 10
23.046600
 20
47.809864
 30
0.0
 10
23.089727
 20
47.858812
 30
0.0
 10
23.089727
 20
47.911200
 30
0.0
  0
LWPOLYLINE
  5
18e
100
AcDbEntity
  8
Layer_1
 62
7
100
AcDbPolyline
 90
3
 70
0
 10
22.671157
 20
48.259921
 30
0.0
 10
22.754500
 20
48.259921
 30
0.0
 10
22.754500
 20
47.911200
 30
0.0
  0
SPLINE
  5
18f
100
AcDbEntity
  8
Layer_1
 62
7
100
AcDbSpline
 70
8
 71
3
 72
8
 73
4
 74
0
 40
0
 40
0
 40
0
 40
0
 40
1
 40
1
 40
1
 40
1
 10
23.174394
 20
47.911200
 30
0.0
 10
23.164869
 20
47.815685
 30
0.0
 10
23.151904
 20
47.774410
 30
0.0
 10
23.107454
 20
47.733400
 30
0.0
  0
SPLINE
  5
190
100
AcDbEntity
  8
Layer_1
 62
7
100
AcDbSpline
 70
8
 71
3
 72
8
 73
4
 74
0
 40
0
 40
0
 40
0
 40
0
 40
1
 40
1
 40
1
 40
1
 10
23.107454
 20
47.733400
 30
0.0
 10
23.045277
 20
47.672281
 30
0.0
 10
22.998711
 20
47.672281
 30
0.0
 10
22.913515
 20
47.672281
 30
0.0
  0
SPLINE
  5
191
100
AcDbEntity
  8
Layer_1
 62
7
100
AcDbSpline
 70
8
 71
3
 72
8
 73
4
 74
0
 40
0
 40
0
 40
0
 40
0
 40
1
 40
1
 40
1
 40
1
 10
22.913515
 20
47.672281
 30
0.0
 10
22.816148
 20
47.672281
 30
0.0
 10
22.770640
 20
47.691860
 30
0.0
 10
22.731217
 20
47.732077
 30
0.0
  0
SPLINE
  5
192
100
AcDbEntity
  8
Layer_1
 62
7
100
AcDbSpline
 70
8
 71
3
 72
8
 73
4
 74
0
 40
0
 40
0
 40
0
 40
0
 40
1
 40
1
 40
1
 40
1
 10
22.731217
 20
47.732077
 30
0.0
 10
22.674067
 20
47.751656
 30
0.0
 10
22.671157
 20
47.831560
 30
0.0
 10
22.671157
 20
47.911200
 30
0.0
  0
LWPOLYLINE
  5
193
100
AcDbEntity
  8
Layer_1
 62
7
100
AcDbPolyline
 90
4
 70
0
 10
23.089727
 20
47.911200
 30
0.0
 10
23.089727
 20
48.259921
 30
0.0
 10
23.174394
 20
48.259921
 30
0.0
 10
23.174394
 20
47.911200
 30
0.0
  0
LWPOLYLINE
  5
194
100
AcDbEntity
  8
Layer_1
 62
7
100
AcDbPolyline
 90
2
 70
0
 10
22.671157
 20
47.911200
 30
0.0
 10
22.671157
 20
48.259921
 30
0.0
  0
LWPOLYLINE
  5
195
100
AcDbEntity
  8
Layer_1
 62
7
100
AcDbPolyline
 90
8
 70
1
 10
23.277582
 20
48.283733
 30
0.0
 10
23.696152
 20
48.283733
 30
0.0
 10
23.696152
 20
48.199066
 30
0.0
 10
23.528407
 20
48.199066
 30
0.0
 10
23.528407
 20
47.695829
 30
0.0
 10
23.445328
 20
47.695829
 30
0.0
 10
23.445328
 20
48.199066
 30
0.0
 10
23.277582
 20
48.199066
 30
0.0
  0
LWPOLYLINE
  5
196
100
AcDbEntity
  8
Layer_1
 62
7
100
AcDbPolyline
 90
1
 70
1
 10
17.838013
 20
59.853697
 30
0.0
  0
SPLINE
  5
197
100
AcDbEntity
  8
Layer_1
 62
7
100
AcDbSpline
 70
8
 71
3
 72
8
 73
4
 74
0
 40
0
 40
0
 40
0
 40
0
 40
1
 40
1
 40
1
 40
1
 10
20.139888
 20
59.241452
 30
0.0
 10
20.621694
 20
59.241452
 30
0.0
 10
21.013277
 20
58.840078
 30
0.0
 10
21.013277
 20
58.345308
 30
0.0
  0
SPLINE
  5
198
100
AcDbEntity
  8
Layer_1
 62
7
100
AcDbSpline
 70
8
 71
3
 72
8
 73
4
 74
0
 40
0
 40
0
 40
0
 40
0
 40
1
 40
1
 40
1
 40
1
 10
21.013277
 20
58.345308
 30
0.0
 10
21.013277
 20
57.850802
 30
0.0
 10
20.621694
 20
57.449429
 30
0.0
 10
20.139888
 20
57.449429
 30
0.0
  0
SPLINE
  5
199
100
AcDbEntity
  8
Layer_1
 62
7
100
AcDbSpline
 70
8
 71
3
 72
8
 73
4
 74
0
 40
0
 40
0
 40
0
 40
0
 40
1
 40
1
 40
1
 40
1
 10
20.139888
 20
57.449429
 30
0.0
 10
19.657552
 20
57.449429
 30
0.0
 10
19.265969
 20
57.850802
 30
0.0
 10
19.265969
 20
58.345308
 30
0.0
  0
SPLINE
  5
19a
100
AcDbEntity
  8
Layer_1
 62
7
100
AcDbSpline
 70
8
 71
3
 72
8
 73
4
 74
0
 40
0
 40
0
 40
0
 40
0
 40
1
 40
1
 40
1
 40
1
 10
19.265969
 20
58.345308
 30
0.0
 10
19.265969
 20
58.840078
 30
0.0
 10
19.657552
 20
59.241452
 30
0.0
 10
20.139888
 20
59.241452
 30
0.0
  0
LWPOLYLINE
  5
19b
100
AcDbEntity
  8
Layer_1
 62
7
100
AcDbPolyline
 90
2
 70
0
 10
17.975067
 20
60.132303
 30
0.0
 10
18.068465
 20
60.132303
 30
0.0
  0
LWPOLYLINE
  5
19c
100
AcDbEntity
  8
Layer_1
 62
7
100
AcDbPolyline
 90
2
 70
0
 10
17.844892
 20
60.137331
 30
0.0
 10
18.102332
 20
59.879891
 30
0.0
  0
LWPOLYLINE
  5
19d
100
AcDbEntity
  8
Layer_1
 62
7
100
AcDbPolyline
 90
2
 70
0
 10
22.470867
 20
60.137331
 30
0.0
 10
22.224275
 20
59.879891
 30
0.0
  0
LWPOLYLINE
  5
19e
100
AcDbEntity
  8
Layer_1
 62
7
100
AcDbPolyline
 90
4
 70
0
 10
18.102332
 20
59.879891
 30
0.0
 10
22.224275
 20
59.879891
 30
0.0
 10
22.224275
 20
55.769325
 30
0.0
 10
22.470867
 20
55.522732
 30
0.0
  0
LWPOLYLINE
  5
19f
100
AcDbEntity
  8
Layer_1
 62
7
100
AcDbPolyline
 90
2
 70
0
 10
21.966836
 20
56.026764
 30
0.0
 10
22.224275
 20
55.769325
 30
0.0
  0
LWPOLYLINE
  5
1a0
100
AcDbEntity
  8
Layer_1
 62
7
100
AcDbPolyline
 90
2
 70
0
 10
22.224275
 20
57.326132
 30
0.0
 10
21.966836
 20
57.079806
 30
0.0
  0
LWPOLYLINE
  5
1a1
100
AcDbEntity
  8
Layer_1
 62
7
100
AcDbPolyline
 90
2
 70
0
 10
22.224275
 20
57.326132
 30
0.0
 10
18.102332
 20
57.326132
 30
0.0
  0
LWPOLYLINE
  5
1a2
100
AcDbEntity
  8
Layer_1
 62
7
100
AcDbPolyline
 90
3
 70
0
 10
18.102332
 20
59.879891
 30
0.0
 10
18.102332
 20
55.769325
 30
0.0
 10
17.844892
 20
55.522732
 30
0.0
  0
LWPOLYLINE
  5
1a3
100
AcDbEntity
  8
Layer_1
 62
7
100
AcDbPolyline
 90
2
 70
0
 10
18.102332
 20
55.769325
 30
0.0
 10
18.348923
 20
56.026764
 30
0.0
  0
LWPOLYLINE
  5
1a4
100
AcDbEntity
  8
Layer_1
 62
7
100
AcDbPolyline
 90
3
 70
0
 10
18.102332
 20
57.326132
 30
0.0
 10
18.348923
 20
57.079806
 30
0.0
 10
18.348923
 20
56.026764
 30
0.0
  0
LWPOLYLINE
  5
1a5
100
AcDbEntity
  8
Layer_1
 62
7
100
AcDbPolyline
 90
4
 70
0
 10
18.348923
 20
57.079806
 30
0.0
 10
21.966836
 20
57.079806
 30
0.0
 10
21.966836
 20
56.026764
 30
0.0
 10
18.348923
 20
56.026764
 30
0.0
  0
LWPOLYLINE
  5
1a6
100
AcDbEntity
  8
Layer_1
 62
7
100
AcDbPolyline
 90
2
 70
0
 10
18.102332
 20
55.769325
 30
0.0
 10
22.224275
 20
55.769325
 30
0.0
  0
LWPOLYLINE
  5
1a7
100
AcDbEntity
  8
Layer_1
 62
7
100
AcDbPolyline
 90
2
 70
0
 10
22.470867
 20
60.137331
 30
0.0
 10
22.470867
 20
55.522732
 30
0.0
  0
LWPOLYLINE
  5
1a8
100
AcDbEntity
  8
Layer_1
 62
7
100
AcDbPolyline
 90
2
 70
0
 10
21.664152
 20
55.522732
 30
0.0
 10
22.470867
 20
55.522732
 30
0.0
  0
LWPOLYLINE
  5
1a9
100
AcDbEntity
  8
Layer_1
 62
7
100
AcDbPolyline
 90
2
 70
0
 10
20.398650
 20
55.522732
 30
0.0
 10
21.205100
 20
55.522732
 30
0.0
  0
LWPOLYLINE
  5
1aa
100
AcDbEntity
  8
Layer_1
 62
7
100
AcDbPolyline
 90
2
 70
0
 10
19.110659
 20
55.522732
 30
0.0
 10
19.939334
 20
55.522732
 30
0.0
  0
LWPOLYLINE
  5
1ab
100
AcDbEntity
  8
Layer_1
 62
7
100
AcDbPolyline
 90
2
 70
0
 10
17.844892
 20
55.522732
 30
0.0
 10
18.662454
 20
55.522732
 30
0.0
  0
LWPOLYLINE
  5
1ac
100
AcDbEntity
  8
Layer_1
 62
7
100
AcDbPolyline
 90
2
 70
0
 10
17.844892
 20
60.137331
 30
0.0
 10
17.844892
 20
55.522732
 30
0.0
  0
LWPOLYLINE
  5
1ad
100
AcDbEntity
  8
Layer_1
 62
7
100
AcDbPolyline
 90
2
 70
0
 10
17.844892
 20
60.137331
 30
0.0
 10
22.470867
 20
60.137331
 30
0.0
  0
LWPOLYLINE
  5
1ae
100
AcDbEntity
  8
Layer_1
 62
7
100
AcDbPolyline
 90
2
 70
0
 10
19.939334
 20
55.567712
 30
0.0
 10
19.939334
 20
54.279456
 30
0.0
  0
LWPOLYLINE
  5
1af
100
AcDbEntity
  8
Layer_1
 62
7
100
AcDbPolyline
 90
2
 70
0
 10
20.398650
 20
55.567712
 30
0.0
 10
20.398650
 20
54.279456
 30
0.0
  0
LWPOLYLINE
  5
1b0
100
AcDbEntity
  8
Layer_1
 62
7
100
AcDbPolyline
 90
2
 70
0
 10
21.205100
 20
55.567712
 30
0.0
 10
21.205100
 20
54.469956
 30
0.0
  0
LWPOLYLINE
  5
1b1
100
AcDbEntity
  8
Layer_1
 62
7
100
AcDbPolyline
 90
2
 70
0
 10
21.664152
 20
55.567712
 30
0.0
 10
21.664152
 20
55.086170
 30
0.0
  0
LWPOLYLINE
  5
1b2
100
AcDbEntity
  8
Layer_1
 62
7
100
AcDbPolyline
 90
2
 70
0
 10
19.110659
 20
55.567712
 30
0.0
 10
19.110659
 20
54.481068
 30
0.0
  0
LWPOLYLINE
  5
1b3
100
AcDbEntity
  8
Layer_1
 62
7
100
AcDbPolyline
 90
2
 70
0
 10
18.662454
 20
55.567712
 30
0.0
 10
18.662454
 20
55.063416
 30
0.0
  0
LWPOLYLINE
  5
1b4
100
AcDbEntity
  8
Layer_1
 62
7
100
AcDbPolyline
 90
2
 70
0
 10
17.934586
 20
55.041191
 30
0.0
 10
17.934586
 20
54.279456
 30
0.0
  0
LWPOLYLINE
  5
1b5
100
AcDbEntity
  8
Layer_1
 62
7
100
AcDbPolyline
 90
2
 70
0
 10
18.382525
 20
54.447731
 30
0.0
 10
19.110659
 20
54.447731
 30
0.0
  0
LWPOLYLINE
  5
1b6
100
AcDbEntity
  8
Layer_1
 62
7
100
AcDbPolyline
 90
2
 70
0
 10
18.382525
 20
54.447731
 30
0.0
 10
18.382525
 20
54.279456
 30
0.0
  0
LWPOLYLINE
  5
1b7
100
AcDbEntity
  8
Layer_1
 62
7
100
AcDbPolyline
 90
2
 70
0
 10
21.227325
 20
54.469956
 30
0.0
 10
21.933234
 20
54.469956
 30
0.0
  0
LWPOLYLINE
  5
1b8
100
AcDbEntity
  8
Layer_1
 62
7
100
AcDbPolyline
 90
2
 70
0
 10
21.955459
 20
54.447731
 30
0.0
 10
21.955459
 20
54.279456
 30
0.0
  0
LWPOLYLINE
  5
1b9
100
AcDbEntity
  8
Layer_1
 62
7
100
AcDbPolyline
 90
2
 70
0
 10
22.403663
 20
55.063416
 30
0.0
 10
22.403663
 20
54.279456
 30
0.0
  0
LWPOLYLINE
  5
1ba
100
AcDbEntity
  8
Layer_1
 62
7
100
AcDbPolyline
 90
2
 70
0
 10
21.675529
 20
55.063416
 30
0.0
 10
22.370061
 20
55.063416
 30
0.0
  0
LWPOLYLINE
  5
1bb
100
AcDbEntity
  8
Layer_1
 62
7
100
AcDbPolyline
 90
4
 70
1
 10
22.403663
 20
49.731798
 30
0.0
 10
22.403663
 20
54.279456
 30
0.0
 10
21.910744
 20
54.279456
 30
0.0
 10
21.910744
 20
49.731798
 30
0.0
  0
LWPOLYLINE
  5
1bc
100
AcDbEntity
  8
Layer_1
 62
7
100
AcDbPolyline
 90
4
 70
1
 10
19.917109
 20
54.279456
 30
0.0
 10
20.410027
 20
54.279456
 30
0.0
 10
20.410027
 20
49.731798
 30
0.0
 10
19.917109
 20
49.731798
 30
0.0
  0
LWPOLYLINE
  5
1bd
100
AcDbEntity
  8
Layer_1
 62
7
100
AcDbPolyline
 90
4
 70
1
 10
17.934586
 20
54.279456
 30
0.0
 10
18.405015
 20
54.279456
 30
0.0
 10
18.405015
 20
49.731798
 30
0.0
 10
17.934586
 20
49.731798
 30
0.0
  0
LWPOLYLINE
  5
1be
100
AcDbEntity
  8
Layer_1
 62
7
100
AcDbPolyline
 90
2
 70
0
 10
17.956811
 20
55.063416
 30
0.0
 10
18.640229
 20
55.063416
 30
0.0
  0
ENDSEC
  0
SECTION
  2
OBJECTS
  0
DICTIONARY
  5
C
330
0
100
AcDbDictionary
  3
ACAD_GROUP
350
D
  3
ACAD_MLINESTYLE
350
17
  0
DICTIONARY
  5
D
330
C
100
AcDbDictionary
  0
DICTIONARY
  5
1A
330
C
100
AcDbDictionary
  0
DICTIONARY
  5
17
330
C
100
AcDbDictionary
  3
STANDARD
350
18
  0
DICTIONARY
  5
19
330
C
100
AcDbDictionary
  0
ENDSEC
  0
EOF
