  0
SECTION
  2
HEADER
  9
$ACADVER
  1
AC1014
  9
$HANDSEED
  5
FFFF
  9
$MEASUREMENT
 70
     1
  0
ENDSEC
  0
SECTION
  2
TABLES
  0
TABLE
  2
VPORT
  5
8
330
0
100
AcDbSymbolTable
 70
     4
  0
VPORT
  5
2E
330
8
100
AcDbSymbolTableRecord
100
AcDbViewportTableRecord
  2
*ACTIVE
 70
     0
 10
0.0
 20
0.0
 11
1.0
 21
1.0
 12
210.0
 22
148.5
 13
0.0
 23
0.0
 14
10.0
 24
10.0
 15
10.0
 25
10.0
 16
0.0
 26
0.0
 36
1.0
 17
0.0
 27
0.0
 37
0.0
 40
341.0
 41
1.24
 42
50.0
 43
0.0
 44
0.0
 50
0.0
 51
0.0
 71
     0
 72
   100
 73
     1
 74
     3
 75
     0
 76
     0
 77
     0
 78
     0
  0
ENDTAB
  0
TABLE
  2
LTYPE
  5
5
330
0
100
AcDbSymbolTable
 70
     1
  0
LTYPE
  5
14
330
5
100
AcDbSymbolTableRecord
100
AcDbLinetypeTableRecord
  2
BYBLOCK
 70
     0
  3

 72
    65
 73
     0
 40
0.0
  0
LTYPE
  5
15
330
5
100
AcDbSymbolTableRecord
100
AcDbLinetypeTableRecord
  2
BYLAYER
 70
     0
  3

 72
    65
 73
     0
 40
0.0
  0
LTYPE
  5
16
330
5
100
AcDbSymbolTableRecord
100
AcDbLinetypeTableRecord
  2
CONTINUOUS
 70
     0
  3
Solid line
 72
    65
 73
     0
 40
0.0
  0
ENDTAB
  0
TABLE
  2
LAYER
  5
2
100
AcDbSymbolTable
 70
2
  0
LAYER
  5
50
100
AcDbSymbolTableRecord
100
AcDbLayerTableRecord
  2
0
 70
0
  6
CONTINUOUS
  0
LAYER
  5
51
100
AcDbSymbolTableRecord
100
AcDbLayerTableRecord
  2
Layer_1
 70
0
  6
CONTINUOUS
  0
ENDTAB
  0
TABLE
  2
STYLE
  5
3
330
0
100
AcDbSymbolTable
 70
     1
  0
STYLE
  5
11
330
3
100
AcDbSymbolTableRecord
100
AcDbTextStyleTableRecord
  2
STANDARD
 70
     0
 40
0.0
 41
1.0
 50
0.0
 71
     0
 42
2.5
  3
txt
  4

  0
ENDTAB
  0
TABLE
  2
VIEW
  5
6
330
0
100
AcDbSymbolTable
 70
     0
  0
ENDTAB
  0
TABLE
  2
UCS
  5
7
330
0
100
AcDbSymbolTable
 70
     0
  0
ENDTAB
  0
TABLE
  2
APPID
  5
9
330
0
100
AcDbSymbolTable
 70
     2
  0
APPID
  5
12
330
9
100
AcDbSymbolTableRecord
100
AcDbRegAppTableRecord
  2
ACAD
 70
     0
  0
ENDTAB
  0
TABLE
  2
DIMSTYLE
  5
A
330
0
100
AcDbSymbolTable
 70
     1
  0
DIMSTYLE
105
27
330
A
100
AcDbSymbolTableRecord
100
AcDbDimStyleTableRecord
  2
ISO-25
 70
     0
  3

  4

  5

  6

  7

 40
1.0
 41
2.5
 42
0.625
 43
3.75
 44
1.25
 45
0.0
 46
0.0
 47
0.0
 48
0.0
140
2.5
141
2.5
142
0.0
143
0.03937007874016
144
1.0
145
0.0
146
1.0
147
0.625
 71
     0
 72
     0
 73
     0
 74
     0
 75
     0
 76
     0
 77
     1
 78
     8
170
     0
171
     3
172
     1
173
     0
174
     0
175
     0
176
     0
177
     0
178
     0
270
     2
271
     2
272
     2
273
     2
274
     3
340
11
275
     0
280
     0
281
     0
282
     0
283
     0
284
     8
285
     0
286
     0
287
     3
288
     0
  0
ENDTAB
  0
TABLE
  2
BLOCK_RECORD
  5
1
330
0
100
AcDbSymbolTable
 70
     1
  0
BLOCK_RECORD
  5
1F
330
1
100
AcDbSymbolTableRecord
100
AcDbBlockTableRecord
  2
*MODEL_SPACE
  0
BLOCK_RECORD
  5
1B
330
1
100
AcDbSymbolTableRecord
100
AcDbBlockTableRecord
  2
*PAPER_SPACE
  0
ENDTAB
  0
ENDSEC
  0
SECTION
  2
BLOCKS
  0
BLOCK
  5
20
330
1F
100
AcDbEntity
  8
0
100
AcDbBlockBegin
  2
*MODEL_SPACE
 70
     0
 10
0.0
 20
0.0
 30
0.0
  3
*MODEL_SPACE
  1

  0
ENDBLK
  5
21
330
1F
100
AcDbEntity
  8
0
100
AcDbBlockEnd
  0
BLOCK
  5
1C
330
1B
100
AcDbEntity
 67
     1
  8
0
100
AcDbBlockBegin
  2
*PAPER_SPACE
  1

  0
ENDBLK
  5
1D
330
1B
100
AcDbEntity
 67
     1
  8
0
100
AcDbBlockEnd
  0
ENDSEC
  0
SECTION
  2
ENTITIES
  0
LWPOLYLINE
  5
100
100
AcDbEntity
  8
Layer_1
 62
7
100
AcDbPolyline
 90
4
 70
1
 10
16.625200
 20
50.179526
 30
0.0
 10
18.197871
 20
50.179526
 30
0.0
 10
18.197871
 20
50.223210
 30
0.0
 10
16.625200
 20
50.223210
 30
0.0
  0
LWPOLYLINE
  5
101
100
AcDbEntity
  8
Layer_1
 62
1
100
AcDbPolyline
 90
2
 70
0
 10
20.192714
 20
47.718640
 30
0.0
 10
20.192714
 20
47.427422
 30
0.0
  0
SPLINE
  5
102
100
AcDbEntity
  8
Layer_1
 62
1
100
AcDbSpline
 70
8
 71
3
 72
8
 73
4
 74
0
 40
0
 40
0
 40
0
 40
0
 40
1
 40
1
 40
1
 40
1
 10
20.192714
 20
47.441983
 30
0.0
 10
20.329923
 20
47.394193
 30
0.0
 10
20.433436
 20
47.259131
 30
0.0
 10
20.456864
 20
47.097095
 30
0.0
  0
SPLINE
  5
103
100
AcDbEntity
  8
Layer_1
 62
1
100
AcDbSpline
 70
8
 71
3
 72
8
 73
4
 74
0
 40
0
 40
0
 40
0
 40
0
 40
1
 40
1
 40
1
 40
1
 10
20.456864
 20
47.097095
 30
0.0
 10
20.487853
 20
46.884282
 30
0.0
 10
20.373232
 20
46.686216
 30
0.0
 10
20.192808
 20
46.640480
 30
0.0
  0
SPLINE
  5
104
100
AcDbEntity
  8
Layer_1
 62
1
100
AcDbSpline
 70
8
 71
3
 72
8
 73
4
 74
0
 40
0
 40
0
 40
0
 40
0
 40
1
 40
1
 40
1
 40
1
 10
20.192714
 20
47.718640
 30
0.0
 10
20.354565
 20
47.680091
 30
0.0
 10
20.499240
 20
47.580591
 30
0.0
 10
20.596873
 20
47.440489
 30
0.0
  0
SPLINE
  5
105
100
AcDbEntity
  8
Layer_1
 62
1
100
AcDbSpline
 70
8
 71
3
 72
8
 73
4
 74
0
 40
0
 40
0
 40
0
 40
0
 40
1
 40
1
 40
1
 40
1
 10
20.596873
 20
47.440489
 30
0.0
 10
20.762643
 20
47.202848
 30
0.0
 10
20.765257
 20
46.891189
 30
0.0
 10
20.602940
 20
46.668108
 30
0.0
  0
LWPOLYLINE
  5
106
100
AcDbEntity
  8
Layer_1
 62
1
100
AcDbPolyline
 90
2
 70
0
 10
20.192714
 20
46.641133
 30
0.0
 10
20.192714
 20
46.379037
 30
0.0
  0
LWPOLYLINE
  5
107
100
AcDbEntity
  8
Layer_1
 62
1
100
AcDbPolyline
 90
2
 70
0
 10
20.192714
 20
46.641133
 30
0.0
 10
20.192714
 20
46.379037
 30
0.0
  0
LWPOLYLINE
  5
108
100
AcDbEntity
  8
Layer_1
 62
1
100
AcDbPolyline
 90
2
 70
0
 10
20.207275
 20
46.379037
 30
0.0
 10
22.376943
 20
46.379037
 30
0.0
  0
LWPOLYLINE
  5
109
100
AcDbEntity
  8
Layer_1
 62
1
100
AcDbPolyline
 90
5
 70
0
 10
22.362382
 20
46.379037
 30
0.0
 10
22.362382
 20
46.815864
 30
0.0
 10
22.114847
 20
46.815864
 30
0.0
 10
22.114847
 20
46.670255
 30
0.0
 10
20.600420
 20
46.670255
 30
0.0
  0
LWPOLYLINE
  5
10a
100
AcDbEntity
  8
Layer_1
 62
1
100
AcDbPolyline
 90
2
 70
0
 10
26.803551
 20
47.718640
 30
0.0
 10
26.803551
 20
47.427422
 30
0.0
  0
SPLINE
  5
10b
100
AcDbEntity
  8
Layer_1
 62
1
100
AcDbSpline
 70
8
 71
3
 72
8
 73
4
 74
0
 40
0
 40
0
 40
0
 40
0
 40
1
 40
1
 40
1
 40
1
 10
26.803551
 20
47.441983
 30
0.0
 10
26.666436
 20
47.394193
 30
0.0
 10
26.562829
 20
47.259131
 30
0.0
 10
26.539401
 20
47.097095
 30
0.0
  0
SPLINE
  5
10c
100
AcDbEntity
  8
Layer_1
 62
1
100
AcDbSpline
 70
8
 71
3
 72
8
 73
4
 74
0
 40
0
 40
0
 40
0
 40
0
 40
1
 40
1
 40
1
 40
1
 10
26.539401
 20
47.097095
 30
0.0
 10
26.508413
 20
46.884282
 30
0.0
 10
26.623033
 20
46.686216
 30
0.0
 10
26.803458
 20
46.640480
 30
0.0
  0
SPLINE
  5
10d
100
AcDbEntity
  8
Layer_1
 62
1
100
AcDbSpline
 70
8
 71
3
 72
8
 73
4
 74
0
 40
0
 40
0
 40
0
 40
0
 40
1
 40
1
 40
1
 40
1
 10
26.803551
 20
47.718640
 30
0.0
 10
26.641701
 20
47.680091
 30
0.0
 10
26.497025
 20
47.580591
 30
0.0
 10
26.399393
 20
47.440489
 30
0.0
  0
SPLINE
  5
10e
100
AcDbEntity
  8
Layer_1
 62
1
100
AcDbSpline
 70
8
 71
3
 72
8
 73
4
 74
0
 40
0
 40
0
 40
0
 40
0
 40
1
 40
1
 40
1
 40
1
 10
26.399393
 20
47.440489
 30
0.0
 10
26.233622
 20
47.202848
 30
0.0
 10
26.231009
 20
46.891189
 30
0.0
 10
26.393139
 20
46.668108
 30
0.0
  0
LWPOLYLINE
  5
10f
100
AcDbEntity
  8
Layer_1
 62
1
100
AcDbPolyline
 90
2
 70
0
 10
26.803551
 20
46.641133
 30
0.0
 10
26.803551
 20
46.379037
 30
0.0
  0
LWPOLYLINE
  5
110
100
AcDbEntity
  8
Layer_1
 62
1
100
AcDbPolyline
 90
2
 70
0
 10
26.803551
 20
46.641133
 30
0.0
 10
26.803551
 20
46.379037
 30
0.0
  0
LWPOLYLINE
  5
111
100
AcDbEntity
  8
Layer_1
 62
1
100
AcDbPolyline
 90
2
 70
0
 10
26.788990
 20
46.379037
 30
0.0
 10
24.619322
 20
46.379037
 30
0.0
  0
LWPOLYLINE
  5
112
100
AcDbEntity
  8
Layer_1
 62
1
100
AcDbPolyline
 90
5
 70
0
 10
24.634070
 20
46.379037
 30
0.0
 10
24.634070
 20
46.815864
 30
0.0
 10
24.881605
 20
46.815864
 30
0.0
 10
24.881605
 20
46.670255
 30
0.0
 10
26.395846
 20
46.670255
 30
0.0
  0
LWPOLYLINE
  5
113
100
AcDbEntity
  8
Layer_1
 62
1
100
AcDbPolyline
 90
2
 70
0
 10
26.803551
 20
49.029214
 30
0.0
 10
26.803551
 20
49.320433
 30
0.0
  0
SPLINE
  5
114
100
AcDbEntity
  8
Layer_1
 62
1
100
AcDbSpline
 70
8
 71
3
 72
8
 73
4
 74
0
 40
0
 40
0
 40
0
 40
0
 40
1
 40
1
 40
1
 40
1
 10
26.803551
 20
49.305872
 30
0.0
 10
26.666436
 20
49.353661
 30
0.0
 10
26.562829
 20
49.488723
 30
0.0
 10
26.539401
 20
49.650760
 30
0.0
  0
SPLINE
  5
115
100
AcDbEntity
  8
Layer_1
 62
1
100
AcDbSpline
 70
8
 71
3
 72
8
 73
4
 74
0
 40
0
 40
0
 40
0
 40
0
 40
1
 40
1
 40
1
 40
1
 10
26.539401
 20
49.650760
 30
0.0
 10
26.508319
 20
49.864880
 30
0.0
 10
26.624433
 20
50.063879
 30
0.0
 10
26.806444
 20
50.108121
 30
0.0
  0
SPLINE
  5
116
100
AcDbEntity
  8
Layer_1
 62
1
100
AcDbSpline
 70
8
 71
3
 72
8
 73
4
 74
0
 40
0
 40
0
 40
0
 40
0
 40
1
 40
1
 40
1
 40
1
 10
26.803551
 20
49.029214
 30
0.0
 10
26.641701
 20
49.067764
 30
0.0
 10
26.497025
 20
49.167263
 30
0.0
 10
26.399393
 20
49.307365
 30
0.0
  0
SPLINE
  5
117
100
AcDbEntity
  8
Layer_1
 62
1
100
AcDbSpline
 70
8
 71
3
 72
8
 73
4
 74
0
 40
0
 40
0
 40
0
 40
0
 40
1
 40
1
 40
1
 40
1
 10
26.399393
 20
49.307365
 30
0.0
 10
26.231009
 20
49.548647
 30
0.0
 10
26.231289
 20
49.865626
 30
0.0
 10
26.399953
 20
50.088800
 30
0.0
  0
LWPOLYLINE
  5
118
100
AcDbEntity
  8
Layer_1
 62
1
100
AcDbPolyline
 90
2
 70
0
 10
26.803551
 20
50.121282
 30
0.0
 10
26.803551
 20
50.368817
 30
0.0
  0
LWPOLYLINE
  5
119
100
AcDbEntity
  8
Layer_1
 62
1
100
AcDbPolyline
 90
2
 70
0
 10
26.803551
 20
50.106721
 30
0.0
 10
26.803551
 20
50.368817
 30
0.0
  0
LWPOLYLINE
  5
11a
100
AcDbEntity
  8
Layer_1
 62
1
100
AcDbPolyline
 90
4
 70
0
 10
26.788990
 20
50.368817
 30
0.0
 10
25.536752
 20
50.368817
 30
0.0
 10
25.536752
 20
48.548611
 30
0.0
 10
26.031823
 20
48.548611
 30
0.0
  0
LWPOLYLINE
  5
11b
100
AcDbEntity
  8
Layer_1
 62
1
100
AcDbPolyline
 90
3
 70
0
 10
25.798849
 20
48.796147
 30
0.0
 10
25.798849
 20
50.092160
 30
0.0
 10
26.395846
 20
50.092160
 30
0.0
  0
LWPOLYLINE
  5
11c
100
AcDbEntity
  8
Layer_1
 62
1
100
AcDbPolyline
 90
2
 70
0
 10
25.798849
 20
48.796147
 30
0.0
 10
26.031823
 20
48.796147
 30
0.0
  0
LWPOLYLINE
  5
11d
100
AcDbEntity
  8
Layer_1
 62
1
100
AcDbPolyline
 90
2
 70
0
 10
26.031823
 20
48.548611
 30
0.0
 10
26.031823
 20
48.796147
 30
0.0
  0
LWPOLYLINE
  5
11e
100
AcDbEntity
  8
Layer_1
 62
1
100
AcDbPolyline
 90
2
 70
0
 10
20.192714
 20
49.029121
 30
0.0
 10
20.192714
 20
49.320339
 30
0.0
  0
SPLINE
  5
11f
100
AcDbEntity
  8
Layer_1
 62
1
100
AcDbSpline
 70
8
 71
3
 72
8
 73
4
 74
0
 40
0
 40
0
 40
0
 40
0
 40
1
 40
1
 40
1
 40
1
 10
20.192714
 20
49.305778
 30
0.0
 10
20.329923
 20
49.353568
 30
0.0
 10
20.433436
 20
49.488630
 30
0.0
 10
20.456864
 20
49.650666
 30
0.0
  0
SPLINE
  5
120
100
AcDbEntity
  8
Layer_1
 62
1
100
AcDbSpline
 70
8
 71
3
 72
8
 73
4
 74
0
 40
0
 40
0
 40
0
 40
0
 40
1
 40
1
 40
1
 40
1
 10
20.456864
 20
49.650666
 30
0.0
 10
20.488039
 20
49.864786
 30
0.0
 10
20.371926
 20
50.063785
 30
0.0
 10
20.189914
 20
50.108028
 30
0.0
  0
LWPOLYLINE
  5
121
100
AcDbEntity
  8
Layer_1
 62
1
100
AcDbPolyline
 90
2
 70
0
 10
20.192714
 20
50.121189
 30
0.0
 10
20.192714
 20
50.368724
 30
0.0
  0
LWPOLYLINE
  5
122
100
AcDbEntity
  8
Layer_1
 62
1
100
AcDbPolyline
 90
2
 70
0
 10
20.192714
 20
50.106628
 30
0.0
 10
20.192714
 20
50.368724
 30
0.0
  0
LWPOLYLINE
  5
123
100
AcDbEntity
  8
Layer_1
 62
1
100
AcDbPolyline
 90
4
 70
0
 10
20.207275
 20
50.368724
 30
0.0
 10
21.459513
 20
50.368724
 30
0.0
 10
21.459513
 20
48.548518
 30
0.0
 10
20.979003
 20
48.548518
 30
0.0
  0
LWPOLYLINE
  5
124
100
AcDbEntity
  8
Layer_1
 62
1
100
AcDbPolyline
 90
3
 70
0
 10
21.197417
 20
48.796053
 30
0.0
 10
21.197417
 20
50.092067
 30
0.0
 10
20.731468
 20
50.092067
 30
0.0
  0
LWPOLYLINE
  5
125
100
AcDbEntity
  8
Layer_1
 62
1
100
AcDbPolyline
 90
2
 70
0
 10
21.197417
 20
48.796053
 30
0.0
 10
20.979003
 20
48.796053
 30
0.0
  0
LWPOLYLINE
  5
126
100
AcDbEntity
  8
Layer_1
 62
1
100
AcDbPolyline
 90
2
 70
0
 10
20.979003
 20
48.548518
 30
0.0
 10
20.979003
 20
48.796053
 30
0.0
  0
LWPOLYLINE
  5
127
100
AcDbEntity
  8
Layer_1
 62
1
100
AcDbPolyline
 90
2
 70
0
 10
20.716907
 20
49.029028
 30
0.0
 10
20.192714
 20
49.029028
 30
0.0
  0
LWPOLYLINE
  5
128
100
AcDbEntity
  8
Layer_1
 62
1
100
AcDbPolyline
 90
2
 70
0
 10
20.731468
 20
49.029028
 30
0.0
 10
20.731468
 20
50.091974
 30
0.0
  0
LWPOLYLINE
  5
129
100
AcDbEntity
  8
Layer_1
 62
1
100
AcDbPolyline
 90
2
 70
0
 10
20.192714
 20
46.131315
 30
0.0
 10
26.803551
 20
46.131315
 30
0.0
  0
LWPOLYLINE
  5
12a
100
AcDbEntity
  8
Layer_1
 62
1
100
AcDbPolyline
 90
2
 70
0
 10
20.192714
 20
50.674503
 30
0.0
 10
26.803551
 20
50.674503
 30
0.0
  0
LWPOLYLINE
  5
12b
100
AcDbEntity
  8
Layer_1
 62
1
100
AcDbPolyline
 90
2
 70
0
 10
20.192714
 20
49.029028
 30
0.0
 10
20.192714
 20
47.718547
 30
0.0
  0
LWPOLYLINE
  5
12c
100
AcDbEntity
  8
Layer_1
 62
1
100
AcDbPolyline
 90
2
 70
0
 10
26.803551
 20
49.029028
 30
0.0
 10
26.803551
 20
47.718547
 30
0.0
  0
LWPOLYLINE
  5
12d
100
AcDbEntity
  8
Layer_1
 62
1
100
AcDbPolyline
 90
4
 70
1
 10
22.275017
 20
50.281359
 30
0.0
 10
24.765025
 20
50.281359
 30
0.0
 10
24.765025
 20
47.602059
 30
0.0
 10
22.275017
 20
47.602059
 30
0.0
  0
LWPOLYLINE
  5
12e
100
AcDbEntity
  8
Layer_1
 62
7
100
AcDbPolyline
 90
4
 70
1
 10
22.740966
 20
48.184589
 30
0.0
 10
24.182495
 20
48.184589
 30
0.0
 10
24.182495
 20
49.655240
 30
0.0
 10
22.740966
 20
49.655240
 30
0.0
  0
LWPOLYLINE
  5
12f
100
AcDbEntity
  8
Layer_1
 62
1
100
AcDbPolyline
 90
4
 70
1
 10
22.740966
 20
49.655333
 30
0.0
 10
24.182495
 20
49.655333
 30
0.0
 10
24.182495
 20
48.184682
 30
0.0
 10
22.740966
 20
48.184682
 30
0.0
  0
LWPOLYLINE
  5
130
100
AcDbEntity
  8
Layer_1
 62
1
100
AcDbPolyline
 90
2
 70
0
 10
26.803644
 20
46.379037
 30
0.0
 10
26.803644
 20
46.131408
 30
0.0
  0
LWPOLYLINE
  5
131
100
AcDbEntity
  8
Layer_1
 62
1
100
AcDbPolyline
 90
2
 70
0
 10
26.803644
 20
50.674596
 30
0.0
 10
26.803644
 20
50.368817
 30
0.0
  0
LWPOLYLINE
  5
132
100
AcDbEntity
  8
Layer_1
 62
1
100
AcDbPolyline
 90
2
 70
0
 10
20.192808
 20
50.674596
 30
0.0
 10
20.192808
 20
50.368817
 30
0.0
  0
LWPOLYLINE
  5
133
100
AcDbEntity
  8
Layer_1
 62
1
100
AcDbPolyline
 90
2
 70
0
 10
20.192808
 20
46.379037
 30
0.0
 10
20.192808
 20
46.131408
 30
0.0
  0
LWPOLYLINE
  5
134
100
AcDbEntity
  8
Layer_1
 62
1
100
AcDbPolyline
 90
2
 70
0
 10
26.133656
 20
50.630914
 30
0.0
 10
26.133656
 20
46.131408
 30
0.0
  0
LWPOLYLINE
  5
135
100
AcDbEntity
  8
Layer_1
 62
1
100
AcDbPolyline
 90
2
 70
0
 10
20.949975
 20
50.630914
 30
0.0
 10
20.949975
 20
46.131408
 30
0.0
  0
ENDSEC
  0
SECTION
  2
OBJECTS
  0
DICTIONARY
  5
C
330
0
100
AcDbDictionary
  3
ACAD_GROUP
350
D
  3
ACAD_MLINESTYLE
350
17
  0
DICTIONARY
  5
D
330
C
100
AcDbDictionary
  0
DICTIONARY
  5
1A
330
C
100
AcDbDictionary
  0
DICTIONARY
  5
17
330
C
100
AcDbDictionary
  3
STANDARD
350
18
  0
DICTIONARY
  5
19
330
C
100
AcDbDictionary
  0
ENDSEC
  0
EOF
